<svg xmlns="http://www.w3.org/2000/svg" pointer-events="none" class="leaflet-zoom-animated" width="1930" height="1304" style="transform: translate3d(-161px, -109px, 0px);" viewBox="-161 -109 1930 1304">
    <g>
        <path class="leaflet-interactive" stroke="#201920" stroke-opacity="1" stroke-width="2" stroke-linecap="round" stroke-linejoin="round" fill="none" d="M363 458L361 454L364 451L359 446L358 443L360 441L364 441L365 436L363 434L366 428L371 428L375 424L381 423L379 419L385 421L391 416L392 419L394 420L394 424L403 421L404 423L407 420L410 411L414 407L419 409L427 408L428 405L433 404L434 400L435 401L440 398L441 399L452 391L459 390L461 386L466 386L465 383L467 382L467 376L465 374L467 370L472 367L469 365L475 362L475 356L469 341L469 330L465 325L461 323L465 319L468 320L471 318L480 317L491 312L494 315L503 317L504 311L499 308L499 304L500 299L502 299L505 291L511 273L511 269L516 270L525 275L539 274L542 278L547 273L551 273L554 269L552 246L556 240L563 240L568 238L569 235L572 233L571 226L577 222L579 224L587 222L590 227L587 228L587 230L593 233L591 236L594 239L595 238L598 241L600 241L601 246L607 248L608 251L612 251L614 249L617 250L617 252L620 255L625 253L626 257L629 258L632 266L631 267L633 269L632 270L639 277L641 285L638 291L640 297L637 300L634 307L634 310L637 313L636 314L638 314L637 316L664 321L680 321L694 331L693 332L699 334L699 336L704 338L711 337L709 342L712 343L718 356L718 359L726 368L726 371L739 370L776 375L790 372L804 374L813 376L818 382L827 384L839 390L846 392L857 390L857 395L865 396L879 387L904 377L912 379L916 377L927 379L930 377L934 378L944 373L947 373L951 371L962 358L970 355L977 350L976 345L971 341L968 335L975 320L984 319L990 324L1004 327L1006 324L1012 322L1019 312L1032 312L1040 308L1042 305L1044 305L1046 303L1048 295L1052 290L1064 289L1066 284L1068 284L1069 286L1078 281L1087 282L1088 280L1090 280L1092 283L1093 282L1095 284L1101 284L1105 282L1105 278L1101 269L1099 269L1099 267L1093 262L1092 259L1086 256L1083 251L1077 249L1072 250L1064 259L1056 253L1049 255L1046 254L1041 258L1035 252L1034 248L1039 244L1039 238L1053 205L1062 211L1071 213L1076 211L1084 203L1091 202L1096 197L1096 193L1092 191L1094 191L1094 187L1098 183L1098 179L1102 175L1102 171L1106 166L1107 161L1118 150L1117 149L1119 147L1118 143L1116 142L1118 137L1114 134L1108 135L1107 130L1121 116L1124 117L1132 115L1134 113L1139 113L1144 110L1145 112L1152 112L1155 110L1157 111L1159 109L1163 111L1163 109L1163 111L1167 110L1173 115L1174 114L1178 118L1182 118L1182 120L1185 121L1189 118L1197 122L1199 125L1197 127L1198 128L1199 127L1202 130L1205 130L1202 134L1206 136L1210 143L1208 144L1209 146L1212 147L1210 151L1215 158L1215 165L1218 166L1216 170L1218 170L1218 168L1218 175L1224 183L1224 192L1226 195L1229 196L1227 200L1228 207L1230 207L1232 212L1247 212L1247 214L1249 214L1253 218L1255 216L1257 218L1258 215L1260 219L1262 219L1267 226L1272 230L1277 229L1278 230L1276 236L1277 239L1280 239L1279 240L1281 243L1278 248L1284 258L1291 257L1293 259L1300 257L1301 258L1304 256L1309 257L1310 252L1315 250L1317 247L1323 248L1327 246L1327 244L1340 240L1344 242L1346 240L1349 241L1342 244L1342 248L1340 250L1344 257L1342 261L1334 267L1335 272L1332 275L1332 283L1329 287L1331 289L1329 289L1330 292L1326 294L1327 297L1325 301L1323 301L1322 308L1318 310L1318 318L1315 320L1300 315L1298 313L1294 317L1294 319L1287 323L1286 322L1283 325L1285 327L1288 342L1286 354L1288 355L1288 359L1286 361L1287 362L1285 364L1284 369L1281 368L1274 372L1277 373L1277 377L1276 378L1276 374L1274 374L1275 375L1271 371L1272 368L1265 365L1266 366L1262 378L1261 377L1259 379L1257 377L1255 379L1254 384L1252 384L1249 387L1235 387L1237 389L1237 393L1240 396L1237 401L1235 399L1224 399L1218 391L1215 394L1214 393L1211 401L1204 408L1204 410L1202 410L1203 411L1199 411L1197 412L1197 414L1196 413L1193 416L1187 418L1187 420L1185 420L1177 427M442 591L437 586L439 583L437 579L442 576L445 583L448 582L450 579L451 580L451 571L449 570L449 566L448 567L441 558L443 556L441 550L443 548L444 549L447 544L445 544L441 540L437 540L434 537L434 532L432 531L433 530L431 528L433 522L427 521L425 523L414 519L410 519L407 513L405 515L401 515L401 513L397 511L399 507L397 499L395 497L389 496L387 492L384 491L380 493L380 491L376 491L374 489L374 487L380 487M895 771L892 770L892 766L890 763L890 761L893 760L894 757L891 754L886 755L884 753L879 754L875 751L874 752L874 750L870 746L867 749L866 748L860 756L855 758L850 756L848 762L844 757L842 757L841 760L839 756L835 760L836 761L834 761L834 763L825 757L821 761L821 763L818 762L815 764L811 762L810 770L813 773L812 775L814 777L812 779L812 782L814 784L813 785L809 783L804 784L804 778L802 774L794 780L792 780L790 778L786 778L787 777L786 775L784 775L783 769L773 769L771 767L773 764L772 763L774 763L773 757L776 756L775 754L776 755L777 752L766 750L767 745L763 737L767 733L757 733L750 735L751 736L747 738L745 736L748 733L748 729L745 728L745 722L749 720L749 713L751 714L755 710L754 709L760 705L760 703L764 702L761 698L764 697L763 694L765 690L763 678L764 672L760 670L758 673L757 672L756 667L754 665L755 662L750 657L749 658L747 654L745 654L744 659L742 659L741 662L743 664L737 668L729 662L720 660L718 658L711 661L709 665L697 671L693 671L682 683L658 684L656 680L658 677L657 674L650 673L650 667L648 667L649 666L646 663L639 666L635 662L630 663L626 660L623 661L621 659L619 661L618 660L611 668L609 671L610 676L607 678L604 674L606 666L602 662L595 665L594 664L594 666L588 665L587 667L578 667L570 662L564 665L562 662L560 662L560 666L557 663L555 657L553 659L547 659L545 657L545 651L539 653L536 650L534 650L527 639L520 642L514 634L510 632L509 633L504 628L499 626L496 620L495 621L486 619L483 627L481 627L477 621L475 621L473 618L471 619L468 616L465 617L462 614L462 612L458 609L447 608L444 602L443 603L442 601L444 597L441 593L442 591M913 778L911 776L903 777L902 775L897 773L897 771L895 771M918 1036L916 1028L917 1019M934 869L939 875L943 887M951 935L950 944L946 951M974 1078L986 1076L991 1073M1035 1018L1046 1004M1083 957L1090 939M1091 872L1091 892M1106 822L1098 839M1137 776L1125 791M1147 745L1151 724" id="国界"/>
        <path class="leaflet-interactive" stroke="#201920" stroke-opacity="1" stroke-width="2" stroke-linecap="butt" stroke-linejoin="round" stroke-dasharray="4,4" stroke-dashoffset="4" fill="none" d="M380 487L385 483L381 481L380 478L382 476L381 471L379 469L380 461L368 457L366 461L363 458" id="争议"/>
        <path class="leaflet-interactive" stroke="gray" stroke-opacity="1" stroke-width="1" stroke-linecap="round" stroke-linejoin="round" stroke-dasharray="8,4,4,4" fill="none" d="M1003 767L1003 769L1003 767M1013 761L1008 763L1008 768L1018 768L1017 762L1015 760L1013 761" id="港澳"/>
        <path class="leaflet-interactive" stroke="#4190da" stroke-opacity="1" stroke-width="1" stroke-linecap="round" stroke-linejoin="round" fill="none" d="M1011 764L1008 763L1010 761L1008 763L1007 762L1005 757L1005 761L1003 763L1004 764L1002 768L1003 769L1001 769L1001 767L1000 770L997 771L998 772L995 769L993 773L991 772L987 775L984 774L982 776L978 774L978 776L975 778L972 777L972 779L971 778L967 780L966 779L958 781L948 788L952 791L954 796L952 800L948 801L944 801L944 797L941 794L940 790L941 782L944 780L939 778L933 781L930 779L932 778L924 776L917 779L917 777L915 779L913 778M952 786L952 786M952 786L954 786L954 788L949 789L949 787L952 786M1003 767L1003 767M1011 764L1011 764M1011 764L1012 765L1011 764M1011 764L1011 764M1105 688L1100 687L1099 689L1103 689L1105 693L1100 696L1102 700L1098 707L1099 706L1100 709L1102 709L1102 706L1104 710L1101 709L1100 712L1096 708L1096 710L1092 711L1096 713L1094 715L1093 714L1092 717L1091 714L1089 714L1091 718L1089 718L1089 720L1084 721L1087 722L1084 726L1082 724L1080 726L1075 726L1077 730L1068 738L1068 740L1064 743L1056 744L1055 749L1053 749L1050 754L1046 754L1039 758L1039 756L1036 755L1034 759L1029 756L1026 757L1024 760L1025 761L1022 760L1021 757L1018 759L1020 761L1018 763L1017 760L1015 760L1014 763L1013 762L1016 763L1016 765L1014 763L1015 766L1011 764M1105 688L1105 688M1136 644L1132 642L1135 647L1131 652L1133 654L1133 658L1131 658L1126 663L1123 663L1122 665L1126 666L1122 666L1116 671L1118 673L1115 679L1111 680L1111 682L1107 684L1108 687L1109 686L1108 689L1104 691L1103 690L1107 687L1106 686L1105 688M1130 496L1123 500L1120 499L1122 501L1120 504L1119 502L1117 504L1118 509L1112 511L1112 507L1108 509L1110 511L1109 512L1111 512L1107 514L1107 516L1105 516L1103 520L1102 519L1100 521L1099 526L1097 526L1097 529L1095 531L1094 530L1093 534L1097 536L1100 540L1111 545L1118 564L1120 565L1119 566L1122 572L1121 576L1129 581L1131 587L1135 588L1138 594L1136 595L1128 592L1122 594L1126 596L1128 599M1128 599L1134 602L1135 605L1138 607L1138 613L1141 616L1137 612L1131 612L1123 616L1132 624L1132 626L1140 629L1136 633L1138 635L1138 642M1130 496L1130 496M1130 496L1130 496M1144 444L1140 447L1141 448L1139 450L1137 450L1137 452L1134 450L1135 451L1132 452L1134 452L1133 454L1132 453L1129 455L1128 454L1125 457L1124 456L1124 452L1132 449L1131 448L1133 448L1132 449L1132 445L1134 443L1131 445L1127 443L1127 438L1129 438L1131 433L1138 427L1137 425L1139 425L1139 423L1142 422L1141 417L1138 416L1135 411L1131 413L1130 411L1125 411L1113 426L1101 431L1096 436L1094 443L1089 448L1083 448L1083 453L1075 446L1071 449L1072 453L1068 454L1070 457L1068 458L1068 460L1071 464L1073 463L1072 466L1083 470L1087 468L1092 473L1092 475L1095 474L1095 478L1089 481L1090 485L1092 487L1093 486L1093 488L1094 487L1096 489L1102 489L1105 486L1104 485L1111 479L1110 478L1118 475L1125 477L1126 480L1129 479L1131 483L1138 481L1150 483L1147 486L1148 489L1146 489L1146 491L1148 491L1147 494L1146 493L1142 495L1140 493L1139 494L1139 492L1132 496L1133 497L1130 496M1130 496L1131 495L1130 496M1136 644L1136 644M1136 644L1136 644M1136 644L1136 644M1138 642L1138 644L1136 644M1138 642L1138 642M1141 627L1141 627M1141 627L1141 627M1141 627L1142 628L1141 627M1143 628L1141 627M1141 627L1139 627L1137 624L1138 623L1143 625L1143 628M1143 628L1143 628M1143 622L1145 622L1143 622M1143 622L1142 623L1143 622M1144 444L1144 444M1177 427L1173 435L1160 435L1145 442L1144 444M1146 613L1146 613M1146 613L1147 614L1145 614L1146 613M1149 612L1148 612M927 777L927 777M931 787L931 787M936 806L936 806M937 1015L940 1011L944 1012L937 1015M938 836L931 833L928 834L928 832L923 830L924 815L926 815L934 806L936 807L939 805L945 805L948 803L950 804L956 802L959 805L960 804L962 807L962 811L956 817L953 828L949 828L946 833L944 832L941 834L941 836L938 836M944 1007L946 1005L947 1006L944 1007M952 793L952 793M952 785L952 785M953 1007L953 1007M953 1002L955 1001L954 1003L953 1002M954 786L952 784L954 784L954 786M954 799L955 798L954 799M955 1004L955 1004M956 789L954 789L956 789M965 876L965 876M969 854L970 855L969 854M969 996L970 995L969 996M969 865L969 865M970 983L970 983M970 1012L971 1010L970 1012M970 1007L971 1006L971 1008L970 1007M971 865L971 865M971 863L971 863M972 1006L973 1005L972 1006M972 868L971 869L973 869L971 870L972 868M972 993L973 994L972 993M972 863L972 863M972 1010L973 1009L972 1010M972 863L973 862L972 863M973 869L974 868L972 868L974 868L973 869M973 865L973 863L973 865M974 871L975 872L974 871M976 1003L978 1003L976 1003M977 867L979 867L977 867M978 1071L978 1071M981 991L981 991M981 990L981 990M981 1071L981 1071M981 860L981 860M981 878L982 877L981 878M981 856L981 856M981 990L981 990M981 1070L982 1069L981 1070M983 989L983 989M983 1043L984 1042L983 1043M983 857L982 856L983 857M983 858L983 858M984 867L986 867L984 867M984 776L984 776M985 1041L985 1041M985 872L987 871L985 872M986 865L985 864L987 863L986 865M986 979L986 979M986 1042L987 1043L986 1042M986 1040L987 1039L987 1041L986 1040M986 990L988 991L986 990M986 1037L986 1037M986 1051L987 1052L986 1051M987 777L987 777M987 1044L988 1045L987 1044M987 1047L989 1047L987 1047M988 866L988 866M988 1051L989 1052L988 1051M988 775L988 777L986 777L988 775M988 867L989 866L988 867M989 861L989 861M990 778L989 775L992 774L990 778M991 989L991 989M992 777L992 777M992 859L991 860L992 859M992 1007L992 1007M992 978L992 978M992 979L992 979M992 1053L993 1052L992 1053M993 998L993 998M993 814L994 813L993 814M994 977L994 977M994 773L994 773M996 772L996 772M996 773L997 772L996 773M996 771L996 771M997 1032L998 1031L997 1032M997 1003L998 1002L997 1003M998 1002L1000 999L998 1002M1003 768L1003 768M1003 968L1003 968M1003 1021L1004 1022L1003 1021M1004 988L1004 988M1004 984L1004 984M1005 771L1005 771M1005 879L1005 879M1005 770L1005 770M1005 771L1006 772L1005 771M1006 771L1006 771M1006 1010L1007 1011L1006 1010M1006 1014L1007 1015L1006 1014M1007 763L1007 763M1007 768L1007 768M1007 819L1006 818L1008 818L1007 819M1007 767L1010 764L1011 765L1007 767M1007 971L1008 970L1007 971M1007 881L1007 881M1008 878L1008 878M1008 1004L1009 1005L1008 1004M1008 1011L1016 1005L1019 1006L1016 1008L1016 1010L1011 1012L1008 1011M1009 990L1008 991L1009 990M1009 875L1009 875M1009 990L1010 991L1009 990M1009 990L1010 991L1009 990M1009 882L1009 882M1010 971L1010 971M1011 957L1011 957M1011 1003L1012 1002L1011 1003M1011 872L1012 873L1011 872M1012 767L1011 766L1012 767M1012 771L1012 771M1012 982L1012 982M1013 765L1013 767L1013 765M1013 771L1013 771M1013 992L1013 992M1013 872L1015 872L1013 872M1013 770L1015 770L1013 770M1013 882L1014 881L1013 882M1014 968L1015 967L1014 968M1014 974L1014 974M1014 768L1014 768M1014 880L1014 880M1014 976L1014 976M1014 949L1014 949M1015 761L1015 761M1015 954L1015 954M1015 764L1015 764M1015 969L1015 969M1015 960L1015 960M1016 948L1016 948M1017 872L1018 871L1017 872M1017 973L1017 973M1017 879L1017 879M1017 974L1017 974M1017 958L1019 957L1017 958M1018 960L1019 959L1018 960M1018 973L1018 973M1018 1002L1020 1002L1018 1002M1018 973L1019 974L1018 973M1019 973L1019 973M1019 950L1019 950M1019 974L1019 974M1019 990L1021 990L1019 990M1019 878L1020 879L1019 878M1020 972L1021 973L1020 972M1020 948L1020 946L1020 948M1020 762L1020 762M1020 1011L1021 1010L1020 1011M1020 1001L1022 1001L1020 1001M1021 966L1021 966M1021 948L1021 948M1021 955L1022 953L1023 954L1021 955M1021 870L1023 869L1021 870M1021 976L1021 976M1022 1002L1022 1002M1022 953L1022 953M1022 874L1022 874M1023 958L1023 958M1023 1016L1024 1017L1023 1016M1024 1004L1024 1004M1024 957L1025 958L1024 957M1025 872L1025 872M1025 1012L1026 1013L1025 1012M1025 954L1025 954M1028 998L1031 998L1028 998M1030 996L1030 996M1030 968L1031 969L1030 968M1032 907L1033 906L1032 907M1033 982L1033 982M1034 973L1035 974L1034 973M1034 996L1035 997L1034 996M1037 963L1037 963M1037 963L1037 963M1037 964L1037 964M1038 964L1038 964M1038 963L1038 963M1039 976L1041 976L1039 976M1039 958L1039 958M1041 788L1042 789L1041 788M1041 786L1043 786L1041 786M1041 983L1041 983M1043 970L1043 970M1044 978L1045 979L1044 978M1046 990L1047 989L1046 990M1049 975L1049 975M1049 985L1050 986L1049 985M1049 975L1050 974L1049 975M1050 965L1050 967L1050 965M1051 976L1051 976M1052 963L1053 964L1052 963M1053 867L1054 866L1053 867M1054 947L1054 947M1054 793L1054 793M1054 987L1053 988L1054 987M1054 792L1055 791L1057 793L1055 795L1054 794L1056 794L1056 792L1054 792M1055 964L1055 964M1060 745L1057 746L1060 745M1061 962L1061 962M1061 960L1061 960M1062 966L1063 967L1062 966M1062 960L1063 959L1065 961L1062 960M1063 954L1062 955L1063 954M1064 970L1064 970M1065 954L1065 954M1068 961L1068 961M1069 954L1068 955L1069 954M1069 886L1071 886L1069 886M1070 959L1071 958L1070 959M1075 728L1075 728M1076 728L1076 726L1076 728M1078 728L1078 728M1081 726L1082 727L1079 729L1079 727L1081 726M1084 450L1084 450M1088 448L1088 448M1088 448L1087 449L1088 448M1097 749L1097 749M1098 714L1097 713L1099 715L1098 714M1098 746L1098 746M1098 742L1098 742M1099 741L1100 742L1099 741M1099 706L1099 706M1100 698L1101 697L1100 698M1100 743L1099 744L1101 742L1100 743M1101 706L1101 706M1101 706L1101 706M1101 689L1102 688L1101 689M1101 712L1101 712M1101 711L1101 711M1102 689L1103 688L1102 689M1105 707L1105 707M1105 697L1105 697M1105 700L1105 700M1106 745L1107 743L1106 745M1106 696L1106 696M1107 691L1107 691M1108 690L1108 690M1108 690L1109 689L1108 690M1108 685L1109 686L1108 685M1109 516L1109 516M1111 683L1111 683M1112 765L1113 764L1112 765M1112 683L1112 683M1113 476L1113 476M1114 693L1114 693M1116 472L1116 472M1117 771L1117 766L1111 761L1107 752L1108 740L1123 717L1131 712L1137 715L1137 717L1139 717L1136 720L1137 726L1133 732L1128 753L1122 761L1121 770L1119 772L1117 771M1117 472L1117 472M1118 472L1118 472M1118 468L1118 468M1119 420L1120 419L1119 420M1119 466L1120 465L1119 466M1121 464L1121 464M1121 464L1121 464M1122 503L1122 503M1123 664L1123 664M1123 674L1124 673L1123 674M1124 665L1123 664L1125 664L1124 665M1125 664L1125 664M1129 593L1138 599L1132 599L1125 593L1129 593M1129 579L1129 579M1130 758L1131 759L1130 758M1131 769L1132 770L1130 770L1131 769M1132 771L1132 771M1132 600L1132 600M1133 643L1133 643M1134 651L1134 651M1135 602L1131 599L1135 602M1135 602L1140 602L1135 602M1136 626L1136 626M1136 650L1136 650M1136 650L1136 650M1136 656L1137 655L1136 656M1136 625L1136 628L1136 625M1136 604L1137 605L1136 604M1137 655L1137 655M1137 710L1137 710M1137 720L1138 721L1137 720M1137 625L1138 626L1137 625M1137 604L1139 604L1137 604M1138 622L1137 621L1138 622M1139 642L1139 642M1139 631L1139 631M1139 628L1139 628M1139 624L1139 624M1140 616L1140 616M1140 628L1140 628M1140 627L1140 627M1140 628L1140 628M1141 628L1141 628M1141 623L1141 623M1141 621L1142 622L1139 621L1141 621M1141 623L1141 623M1141 638L1141 638M1141 633L1140 632L1142 632L1141 633M1142 632L1142 632M1142 628L1141 627L1142 628M1143 630L1144 631L1142 631L1143 630M1143 629L1143 629M1143 632L1142 631L1143 632M1144 628L1144 630L1144 628M1145 447L1144 448L1145 447M1145 627L1144 626L1145 627M1145 619L1143 619L1145 619M1146 619L1146 619M1147 446L1147 446M1147 445L1149 445L1147 445M1148 615L1148 615M1149 446L1149 446M1151 624L1151 624M1151 450L1150 451L1151 450M1151 614L1151 614M1152 614L1151 613L1152 614M1155 439L1154 441L1155 439M1156 442L1156 442M1157 450L1158 449L1157 450M1160 705L1164 705L1160 707L1160 705M1164 704L1164 704M1164 701L1167 700L1167 702L1164 701M1164 707L1164 707M1164 705L1164 705M1165 706L1165 706M1166 435L1166 435M1178 701L1181 701L1178 701" id="海洋"/>
        <path class="leaflet-interactive" stroke="#747569" stroke-opacity="0.6" stroke-width="1" stroke-linecap="round" stroke-linejoin="round" fill="none" d="M619 510L617 510L614 507L610 507L606 504L604 506L600 502L585 505L581 503L578 506L577 505L570 506L567 508L566 507L562 510L559 516L555 516L552 519L546 516L535 520L533 523L530 524L514 524L510 521L511 520L509 518L506 519L504 517L502 517L500 521L498 521L495 524L496 525L490 527L482 525L480 523L478 525L470 523L467 524L468 527L463 531L459 542L449 542L447 544M748 579L742 579L743 584L741 584L741 587L739 589L732 589L732 593L734 595L732 596L723 591L723 597L718 593L718 595L714 593L713 594L710 591L711 586L710 587L708 583L705 584L708 583L704 581L703 582L698 577L690 581L685 580L683 578L679 580L676 577L672 577L672 575L669 576L660 575L658 573L655 574L647 568L638 569L629 565L623 559L622 554L618 552L619 548L621 548L621 540L619 538L621 534L618 534L616 532L617 529L615 525L619 523L620 514L615 514L614 511L619 510M662 450L642 457L633 458L629 462L625 462L628 467L629 465L632 465L632 477L641 482L645 491L637 493L635 495L635 499L640 502L640 507L642 509L641 510L638 511L635 509L629 509L624 506L622 510L619 510M813 560L810 561L810 557L803 558L804 555L800 553L797 545L804 544L812 549L816 549L817 546L819 546L819 542L815 540L815 534L817 534L820 530L821 531L823 527L821 523L823 523L826 520L828 522L830 520L828 516L829 514L832 515L831 510L834 507L830 505L828 501L829 500L826 497L828 496L824 492L824 490L827 489L818 481L816 477L813 478L809 474L807 474L806 476L799 470L799 468L797 468L796 466L792 466L789 463L788 464L788 462L786 461L784 462L787 465L787 467L781 464L769 453L769 451L765 449L762 452L758 450L754 455L747 452L744 448L736 446L735 452L737 458L736 460L734 459L731 462L731 466L725 466L725 468L721 468L715 463L713 465L707 465L707 463L697 464L694 456L687 457L684 455L686 454L684 453L675 453L674 447L662 450M726 371L720 376L723 383L721 384L721 389L718 391L714 391L709 395L709 397L706 393L702 394L700 397L696 398L686 409L684 416L671 418L666 440L661 446L662 450M853 483L851 483L844 476L839 474L838 471L841 468L839 463L846 458L852 451L850 442L846 441L840 443L833 449L824 446L815 448L815 451L818 453L813 458L804 454L804 450L800 452L799 450L798 451L798 442L793 443L788 437L782 433L775 432L782 430L787 424L788 415L786 411L779 410L777 412L771 412L770 415L768 413L765 415L765 417L761 414L762 416L758 418L758 411L752 407L746 399L750 395L739 370M770 641L768 633L768 613L762 605L762 603L763 602L765 604L766 601L759 593L759 589L756 583L748 579M813 560L813 562L811 563L812 566L810 568L805 565L802 566L802 572L804 573L802 577L801 576L799 578L795 576L796 577L794 579L790 575L788 576L788 578L783 570L780 575L774 572L773 573L771 569L764 565L765 564L762 559L763 558L759 554L759 550L749 547L747 551L742 554L743 559L745 559L744 560L748 562L744 567L745 569L742 572L742 574L745 578L748 579M754 661L757 656L759 662L764 659L762 655L762 646L765 645L767 649L769 644L768 643L770 641M870 669L869 664L867 662L865 662L863 664L864 665L858 667L854 663L856 661L856 659L853 658L853 654L855 654L855 652L847 652L845 654L847 658L842 659L840 661L840 668L834 675L831 676L831 684L833 686L834 691L832 691L833 692L827 696L826 693L818 699L814 699L813 696L811 696L811 694L807 690L809 686L808 687L806 685L807 684L803 682L803 678L801 678L796 665L793 667L792 666L789 669L785 662L787 658L784 655L784 653L782 653L780 648L776 652L774 660L775 661L772 658L770 651L770 641M873 572L871 572L872 575L867 578L859 577L856 574L854 574L853 571L856 570L854 570L855 564L853 564L851 560L852 559L850 557L845 558L840 555L835 555L836 549L832 547L832 545L830 545L822 552L819 551L824 562L821 562L820 565L818 565L818 567L817 566L815 568L813 566L815 564L815 560L813 560M907 474L900 468L893 468L889 465L891 463L892 457L897 450L894 447L893 443L891 443L889 445L885 445L886 448L882 449L880 453L881 454L879 456L878 461L879 462L877 468L877 475L874 478L871 477L866 480L856 481L853 483M853 483L859 483L860 484L858 487L862 487L864 489L863 490L870 495L868 499L871 502L873 508L873 510L870 511L871 516L872 515L872 517L876 517L878 521L882 521L882 523L884 523L887 527L889 525L888 518L893 518L896 515L896 509L894 507L890 507L889 502L887 501L889 497L891 497L892 495L890 493L892 491L891 490L901 490M870 669L867 675L866 674L864 676L858 676L855 673L852 677L849 674L842 681L845 682L844 685L847 691L855 687L860 693L857 699L856 698L855 705L854 704L856 708L855 709L858 708L857 709L859 713L860 712L862 714L860 714L860 718L857 722M857 722L857 726L860 730L861 727L867 728L869 734L870 733L872 735L874 733L878 735L880 733L884 737L883 744L878 744L873 749L874 750M937 699L934 704L935 705L931 703L927 705L928 706L930 704L930 708L926 708L926 706L923 709L923 711L918 708L915 711L916 712L912 715L910 715L907 712L905 714L905 712L904 713L904 711L902 711L902 709L898 707L897 712L894 715L893 714L887 718L883 718L884 721L881 724L869 718L867 718L865 722L861 724L857 722M887 654L886 655L881 650L875 654L876 659L877 658L881 662L885 662L885 668L879 668L875 670L873 668L870 669M901 490L903 494L911 496L912 499L916 499L924 504L923 507L925 509L924 512L921 514L923 524L922 526L916 525L912 527L909 525L908 528L911 532L908 533L907 532L901 534L897 530L890 530L890 536L886 540L892 544L892 546L889 545L890 548L888 551L890 559L889 560L887 558L883 560L882 558L880 558L878 563L876 563L880 567L880 569L878 572L873 572M921 586L921 584L913 586L903 579L901 582L897 576L893 575L888 578L879 573L875 576L873 572M934 655L932 655L930 659L931 660L925 660L926 657L924 655L924 657L922 657L923 652L918 651L919 646L917 644L910 646L909 642L906 643L906 641L903 642L904 647L901 650L900 647L896 650L895 649L893 655L891 655L891 651L889 649L889 653L887 654M887 654L885 648L878 646L876 640L873 641L869 635L877 629L877 627L874 624L877 621L877 619L879 619L885 623L890 621L894 627L896 625L897 626L905 616L904 613L909 610L909 612L911 612L915 604L913 604L917 601L917 599L919 599L920 596L922 596L922 594L917 590L919 590L919 586L921 586M901 490L901 485L903 481L902 480L907 474M963 443L963 439L961 439L956 445L948 441L947 442L949 444L947 446L944 445L943 446L945 447L940 451L938 455L936 455L936 457L934 458L935 459L932 460L929 464L928 467L930 471L928 473L926 470L925 478L914 479L913 476L907 474M921 586L930 590L935 595L939 595M939 595L941 595L941 597L948 602L948 610L946 612L944 610L942 611L935 618L934 615L932 617L930 615L927 616L927 618L923 616L924 617L920 619L922 621L922 629L919 630L921 632L923 630L924 633L925 632L928 635L928 639L930 639L933 643M933 643L934 650L932 652L934 652L934 655M1009 645L1007 643L1006 644L1004 642L1005 641L1003 641L1006 637L1004 635L1005 634L1002 633L1003 630L995 637L993 637L992 634L994 632L993 633L992 631L988 635L985 634L983 636L980 633L978 633L979 632L976 629L968 629L965 626L960 625L953 626L953 628L956 631L954 633L953 632L951 634L948 631L942 631L941 634L937 634L933 643M937 699L937 695L934 694L936 690L934 688L938 686L936 684L938 682L937 679L933 679L928 682L926 680L932 674L937 672L934 666L934 655M978 722L972 722L970 724L968 718L969 717L967 715L965 715L962 719L961 718L962 714L967 709L966 706L969 703L965 701L966 696L964 694L956 694L949 701L949 699L947 699L946 696L942 700L942 702L940 702L941 701L937 699M961 565L957 568L954 565L952 567L940 565L936 567L941 568L941 572L945 572L948 575L946 579L939 578L937 582L939 586L939 595M942 780L941 780M942 780L941 777L943 777L945 773L951 772L951 768L956 767L956 762L958 760L963 759L962 758L967 755L967 747L969 742L971 742L971 740L973 738L974 739L975 736L977 736L975 732L978 730L978 726L976 724L978 722M942 803L946 803M947 802L951 802M951 539L949 538L949 534L955 520L952 508L953 497L951 491L952 492L956 487L955 484L958 481L953 468L960 461L960 457L962 454L961 451L964 449L965 446L965 444L963 443M951 539L953 543L952 546L956 548L955 553L962 560L961 565M951 539L954 540L958 538L959 539L964 535L971 535L971 533L974 530L979 529L978 526L992 527L993 524L996 525L996 523L1002 521L1003 518L1004 519L1003 516L1005 512L1005 504M952 801L955 800M1032 601L1030 601L1028 597L1023 600L1020 597L1018 597L1019 594L1015 594L1013 592L1009 594L1009 592L1006 591L1006 583L1004 581L1001 584L999 584L996 581L990 583L982 583L972 577L971 578L965 572L966 571L961 565M962 567L962 567M1012 414L1011 419L1007 419L1002 423L998 423L998 421L994 422L991 426L984 424L980 428L976 438L974 439L972 437L968 437L968 441L963 443M978 722L980 720L979 718L981 714L988 715L991 720L994 719L994 714L991 713L998 708L1000 711L1003 712L1007 712L1009 710M1033 509L1030 510L1030 508L1026 508L1025 511L1024 509L1016 508L1010 506L1011 505L1005 504M1005 504L1001 498L1006 494L1006 490L1012 478L1009 475L1008 470L1002 466L1002 462L1007 455L1006 451L1008 449L1016 449L1015 448L1019 440L1016 437L1016 433L1011 432L1008 429L1010 429L1011 426L1016 425L1018 423L1014 421L1014 417L1012 414M1044 630L1041 632L1035 630L1031 634L1028 633L1028 635L1024 637L1025 636L1025 638L1015 639L1009 645M1009 710L1008 705L1010 699L1013 698L1013 696L1009 696L1011 690L1007 688L1008 682L1006 680L1008 676L1003 676L1003 671L1006 667L1005 666L1014 657L1011 654L1012 649L1009 645M1009 710L1010 713L1018 711L1022 714L1013 723L1017 727L1020 725L1024 725L1026 723L1030 723L1032 721L1037 726L1039 724L1038 721L1040 719M1094 402L1081 402L1076 394L1076 392L1079 391L1079 386L1078 385L1076 387L1076 383L1074 383L1074 378L1070 374L1066 374L1064 376L1065 377L1059 377L1056 380L1057 383L1055 383L1056 386L1054 388L1049 389L1047 387L1043 392L1040 389L1033 393L1031 395L1032 396L1030 395L1029 397L1027 395L1024 396L1024 386L1022 384L1019 385L1017 387L1018 388L1015 388L1013 392L1013 398L1010 397L1008 399L1008 402L1010 404L1007 407L1012 414M1045 540L1046 544L1051 546L1050 549L1052 553L1044 557L1043 553L1040 550L1036 550L1036 558L1031 561L1031 567L1028 569L1024 569L1024 571L1026 571L1029 574L1029 578L1031 578L1030 579L1032 578L1036 582L1040 578L1040 593L1035 594L1033 596L1034 597L1032 601M1044 630L1042 621L1040 621L1041 619L1038 614L1040 612L1039 611L1043 608L1036 604L1035 605L1032 601M1072 465L1064 475L1055 474L1049 482L1047 480L1046 483L1040 487L1038 494L1034 496L1030 501L1030 503L1033 506L1033 509M1045 540L1034 540L1033 535L1031 535L1027 531L1023 531L1023 528L1025 528L1025 526L1028 523L1030 523L1034 517L1040 515L1040 513L1043 512L1043 510L1031 516L1033 509M1040 719L1040 715L1043 708L1042 706L1044 702L1046 702L1050 698L1048 696L1050 693L1052 693L1050 687L1051 684L1061 677L1060 672L1058 672L1058 670L1060 670L1063 667L1062 666L1066 664L1069 667L1073 664L1078 663L1081 658M1061 743L1057 737L1058 732L1055 728L1056 727L1054 726L1055 724L1054 723L1050 725L1048 721L1049 720L1046 721L1040 719M1077 638L1074 635L1068 635L1064 631L1065 630L1061 628L1059 630L1059 633L1053 635L1053 631L1056 629L1056 627L1053 625L1051 629L1046 631L1044 630M1048 538L1045 540M1095 530L1090 530L1086 537L1082 537L1081 542L1077 544L1077 540L1075 540L1075 538L1071 538L1071 540L1067 542L1065 542L1064 539L1061 542L1055 532L1050 533L1048 538M1100 606L1095 603L1088 604L1086 602L1088 600L1088 596L1085 596L1080 591L1080 589L1085 584L1085 580L1083 578L1087 578L1091 581L1094 578L1094 576L1090 572L1091 571L1089 571L1086 574L1086 576L1081 576L1078 573L1078 567L1077 566L1075 568L1073 566L1077 556L1071 556L1068 550L1067 551L1058 548L1058 544L1052 542L1048 538M1064 425L1061 419L1066 416L1057 415L1053 408L1048 411L1047 410L1049 413L1048 414L1046 414L1042 418L1038 418L1041 424L1033 429L1035 434L1033 434L1034 438L1038 440L1041 438L1046 439L1049 442L1051 438L1055 438M1068 459L1062 460L1062 458L1059 459L1059 457L1054 456L1053 453L1057 448L1056 443L1055 444L1055 438M1056 436L1055 438M1056 436L1058 438L1061 437L1061 428M1061 428L1054 429L1055 433L1057 433L1056 436M1061 743L1062 745M1064 425L1064 427L1061 428M1064 746L1065 747M1064 425L1066 425L1071 430L1067 430L1066 433L1068 435L1068 439L1069 440L1071 438L1073 440L1071 444L1075 446M1077 638L1079 638L1079 636L1080 637L1088 629L1088 622L1090 620L1096 620L1096 617L1094 617L1094 615L1098 614L1100 606M1077 638L1077 640L1075 640L1075 644L1080 649L1082 655L1081 658M1114 680L1110 674L1103 676L1099 670L1095 674L1089 674L1089 670L1086 665L1087 660L1085 658L1081 658M1094 402L1097 399L1095 395L1095 381L1099 379L1100 382L1104 383L1108 394L1108 392L1115 384L1122 381L1123 382L1128 377L1132 376L1134 378L1138 372L1142 373L1142 371L1144 373L1146 371L1144 370L1145 369L1150 370L1152 372L1154 370L1155 371L1158 368L1158 366L1165 364L1166 357M1104 430L1100 424L1100 420L1098 418L1095 419L1093 415L1089 415L1088 410L1094 404L1094 402M1121 608L1119 608L1114 613L1112 609L1110 610L1104 605L1100 606M1117 681L1118 682M1119 462L1124 463M1138 597L1131 595L1127 592L1125 593L1124 594L1128 598L1124 601L1124 605L1121 606L1121 608M1127 614L1124 611L1122 612L1123 611L1121 608M1128 614L1131 614M1161 276L1157 279L1157 281L1155 281L1153 279L1153 275L1151 275L1152 273L1148 271L1145 267L1148 262L1158 255L1159 252L1163 250L1174 238L1176 238L1176 244L1178 246L1177 248L1179 248L1179 238L1182 228L1184 226L1184 222L1189 223L1191 219L1189 211L1191 205L1190 202L1192 200L1191 199L1194 196L1195 191L1200 187L1199 183L1203 179L1204 175L1198 169L1196 164L1189 159L1188 162L1185 163L1186 164L1182 168L1178 166L1176 169L1174 167L1169 169L1166 166L1163 169L1156 169L1152 165L1153 163L1150 151L1148 149L1151 143L1147 143L1146 140L1145 141L1144 138L1141 137L1138 143L1136 143L1127 135L1125 135L1135 123L1133 117L1130 115M1132 614L1133 614M1135 613L1137 613M1139 612L1141 611M1144 610L1146 610M1149 610L1151 609M1288 354L1286 356L1284 354L1282 356L1279 353L1277 353L1273 350L1274 349L1272 342L1268 347L1266 343L1264 344L1264 346L1260 346L1257 348L1255 347L1254 353L1250 354L1246 347L1247 346L1245 346L1244 341L1242 340L1243 336L1241 332L1238 333L1238 335L1236 335L1236 341L1231 342L1226 332L1228 330L1219 330L1220 321L1218 317L1217 318L1212 315L1207 318L1202 317L1198 313L1198 309L1193 310L1193 312L1188 312L1185 308L1184 311L1177 311L1176 308L1174 306L1173 307L1171 304L1172 302L1170 299L1170 291L1157 292M1157 292L1155 284L1165 281L1165 279L1162 278L1163 276L1161 276M1157 292L1156 295L1151 296L1152 300L1149 305L1149 303L1146 303L1147 302L1145 300L1143 302L1136 297L1135 302L1133 304L1138 305L1138 309L1141 311L1142 315L1139 323L1141 327L1140 330L1143 334L1143 338L1147 338L1153 333L1157 332L1157 336L1161 340L1160 343L1163 349L1163 351L1159 353L1163 357L1166 357M1161 276L1159 274L1161 276M1161 276L1161 276M1161 276L1161 276M1166 357L1168 355L1170 359L1175 360L1177 364L1176 366L1178 366L1176 368L1180 368L1182 364L1185 363L1184 370L1187 371L1186 372L1190 378L1189 380L1192 383L1191 384L1195 384L1191 388L1191 390L1192 394L1194 394L1195 399L1199 405L1199 407L1196 410L1198 412M879 523L882 522L879 523M938 687L939 686L938 687M992 631L992 631" id="省界"/>
        <path class="leaflet-interactive" stroke="#8B908F" stroke-opacity="0.5" stroke-width="1" stroke-linecap="butt" stroke-linejoin="bevel" fill="#eee" fill-opacity="0.5" fill-rule="evenodd" d="M1064 418L1066 416L1058 415L1053 410L1053 408L1049 409L1049 411L1047 411L1049 413L1046 413L1042 418L1041 417L1038 419L1038 421L1041 424L1033 429L1035 434L1033 434L1034 437L1038 440L1041 438L1046 439L1049 442L1048 441L1051 438L1055 438L1057 436L1057 433L1054 431L1054 429L1061 429L1064 426L1061 419L1064 418z" id="北京市"/>
        <path class="leaflet-interactive" stroke="#8B908F" stroke-opacity="0.5" stroke-width="1" stroke-linecap="butt" stroke-linejoin="bevel" fill="#eee" fill-opacity="0.5" fill-rule="evenodd" d="M1070 443L1073 440L1072 438L1070 438L1069 440L1068 439L1069 438L1066 431L1071 430L1066 425L1064 425L1064 427L1060 431L1061 437L1060 438L1057 436L1054 439L1057 449L1054 450L1053 454L1062 460L1070 457L1068 455L1072 454L1071 450L1075 446L1072 443L1066 443L1069 442zM1071 443L1072 442L1071 443z" id="天津市"/>
        <path class="leaflet-interactive" stroke="#8B908F" stroke-opacity="0.5" stroke-width="1" stroke-linecap="butt" stroke-linejoin="bevel" fill="#eee" fill-opacity="0.5" fill-rule="evenodd" d="M1065 416L1065 418L1061 419L1062 423L1071 430L1066 431L1067 436L1069 437L1069 439L1073 439L1071 443L1074 444L1074 447L1075 446L1082 453L1084 451L1084 448L1089 448L1095 442L1094 440L1099 432L1103 430L1104 431L1100 423L1100 420L1098 418L1095 419L1093 415L1092 416L1088 414L1090 409L1089 408L1094 403L1080 401L1076 393L1077 391L1079 391L1079 386L1078 385L1076 387L1077 386L1074 382L1074 378L1070 374L1066 374L1064 376L1065 377L1059 377L1056 381L1057 382L1055 384L1055 388L1048 389L1048 387L1044 390L1044 392L1042 392L1040 389L1037 390L1029 397L1027 395L1023 396L1025 391L1023 384L1019 384L1017 386L1018 388L1015 388L1013 392L1013 398L1011 397L1008 399L1008 402L1010 404L1007 407L1010 410L1015 422L1018 423L1016 425L1011 426L1011 428L1009 428L1008 430L1010 430L1010 432L1016 433L1018 441L1016 446L1017 447L1015 448L1016 449L1011 450L1010 448L1006 452L1007 455L1003 458L1002 461L1002 466L1008 470L1009 475L1012 478L1006 489L1006 495L1005 494L1005 496L1001 498L1003 500L1002 502L1007 505L1023 509L1025 510L1024 511L1027 508L1031 510L1033 508L1034 509L1032 506L1033 505L1032 506L1030 502L1033 496L1037 496L1041 485L1046 484L1045 483L1047 480L1049 482L1055 474L1064 475L1067 470L1071 468L1073 464L1070 464L1068 459L1062 460L1061 458L1060 459L1054 456L1053 453L1057 449L1055 443L1056 442L1054 441L1055 438L1051 438L1048 441L1049 442L1045 439L1041 438L1037 440L1033 437L1033 434L1035 434L1033 429L1041 424L1038 421L1038 419L1040 417L1042 418L1046 413L1049 414L1047 411L1049 411L1049 409L1052 408L1053 411L1058 415L1065 416zM1061 428L1054 429L1057 435L1056 436L1058 438L1061 437L1061 429zM1071 443L1066 443L1070 443zM1088 448L1088 449z" id="河北省"/>
        <path class="leaflet-interactive" stroke="#8B908F" stroke-opacity="0.5" stroke-width="1" stroke-linecap="butt" stroke-linejoin="bevel" fill="#eee" fill-opacity="0.5" fill-rule="evenodd" d="M951 539L954 540L958 538L959 539L964 535L971 535L974 530L978 530L978 526L992 527L993 524L996 525L996 523L1002 521L1002 518L1004 518L1003 515L1005 511L1005 504L1001 498L1005 496L1005 494L1006 495L1006 489L1012 478L1009 475L1008 470L1002 466L1002 461L1003 458L1007 456L1006 451L1008 449L1016 449L1015 448L1017 446L1017 442L1019 439L1016 437L1016 433L1008 430L1011 426L1016 425L1018 423L1014 421L1012 415L1010 419L1006 419L1003 423L995 422L992 423L991 426L984 424L980 428L977 436L974 439L970 437L967 441L963 443L965 445L963 450L961 451L962 452L959 459L960 461L954 467L953 471L958 480L955 484L955 488L951 492L953 500L952 508L955 520L953 525L951 526L949 533L950 539z" id="山西省"/>
        <path class="leaflet-interactive" stroke="#8B908F" stroke-opacity="0.5" stroke-width="1" stroke-linecap="butt" stroke-linejoin="bevel" fill="#eee" fill-opacity="0.5" fill-rule="evenodd" d="M739 370L750 395L746 399L752 407L758 411L758 418L762 416L761 414L763 414L765 417L765 415L768 413L770 416L771 412L777 412L779 410L786 411L788 415L787 424L784 426L782 430L775 432L782 433L788 437L792 441L792 443L798 442L798 451L804 450L804 454L806 454L805 455L813 458L818 453L814 449L822 446L833 449L840 443L846 441L850 442L849 445L852 451L846 458L839 463L841 468L838 471L839 474L850 482L854 483L856 481L862 481L870 477L874 478L878 474L877 468L879 465L878 464L879 456L881 454L880 453L882 449L886 447L885 445L889 445L891 443L894 444L896 452L892 457L889 465L896 469L901 469L906 474L913 476L913 479L925 478L926 470L928 473L930 471L928 467L929 464L936 455L938 455L943 448L944 449L944 445L949 445L947 442L948 441L951 444L954 443L955 445L957 445L959 441L962 439L964 439L962 442L963 443L967 442L969 437L972 437L974 439L977 436L980 428L984 424L991 426L994 422L998 421L999 423L1002 423L1006 420L1011 419L1010 417L1012 414L1010 412L1011 410L1008 407L1008 405L1010 405L1010 403L1008 403L1008 399L1010 397L1013 398L1013 392L1019 384L1024 385L1023 386L1025 390L1023 396L1031 396L1031 394L1039 389L1043 392L1048 387L1048 389L1055 388L1055 384L1057 382L1056 379L1058 377L1064 377L1066 374L1070 374L1074 378L1074 382L1076 384L1075 385L1077 386L1076 387L1079 387L1079 391L1076 392L1080 402L1088 401L1092 403L1097 399L1097 396L1095 395L1096 385L1094 383L1098 379L1102 383L1104 383L1105 389L1108 394L1112 387L1113 388L1113 386L1120 381L1122 382L1128 377L1132 376L1133 378L1139 372L1142 371L1144 373L1146 371L1144 370L1145 369L1150 370L1152 372L1154 370L1155 371L1158 369L1157 368L1160 365L1165 364L1166 357L1161 356L1159 353L1162 353L1161 352L1163 352L1163 350L1160 343L1161 340L1156 334L1157 332L1155 332L1147 338L1144 338L1142 331L1140 330L1141 327L1139 323L1142 314L1138 309L1138 305L1133 304L1135 302L1136 297L1143 302L1146 300L1146 303L1147 302L1150 305L1150 302L1152 300L1151 296L1157 293L1154 284L1158 284L1160 282L1165 281L1165 279L1162 278L1163 276L1159 274L1161 276L1160 278L1158 278L1157 281L1155 281L1153 279L1153 275L1151 275L1152 273L1148 271L1145 267L1148 261L1157 256L1159 252L1163 250L1173 239L1175 238L1178 246L1177 248L1179 248L1179 237L1181 234L1180 232L1184 226L1184 222L1189 223L1191 218L1189 211L1191 198L1193 198L1192 197L1194 196L1195 191L1200 187L1199 183L1203 179L1204 175L1202 174L1203 173L1201 173L1196 164L1189 159L1187 163L1185 163L1186 165L1182 168L1178 166L1176 169L1174 167L1169 169L1166 166L1159 170L1154 167L1152 165L1153 163L1150 157L1150 151L1148 149L1151 144L1147 143L1144 140L1144 138L1141 137L1138 143L1136 143L1127 135L1125 135L1130 131L1135 121L1133 117L1130 115L1124 117L1121 116L1117 119L1117 121L1107 132L1107 135L1114 133L1118 136L1116 142L1119 148L1107 161L1103 169L1103 173L1098 179L1097 184L1092 192L1096 194L1096 197L1094 200L1093 199L1092 202L1083 203L1079 208L1072 213L1062 211L1054 205L1043 231L1039 237L1039 244L1034 247L1035 252L1041 258L1046 254L1049 255L1055 253L1064 259L1071 250L1076 249L1083 251L1086 256L1092 259L1093 262L1096 263L1095 264L1099 267L1099 269L1102 270L1105 277L1105 281L1103 283L1096 284L1088 280L1085 282L1079 281L1069 286L1066 284L1064 289L1056 289L1051 291L1046 299L1046 303L1042 305L1040 308L1032 312L1019 312L1017 316L1004 327L991 324L987 322L985 319L976 320L971 326L971 330L968 336L977 347L977 349L970 355L962 358L951 371L948 373L944 373L938 377L930 377L927 379L917 377L912 379L905 377L877 388L865 396L857 395L857 390L847 392L828 384L818 382L813 376L790 372L777 375L755 373L741 370z" id="内蒙古自治区"/>
        <path class="leaflet-interactive" stroke="#8B908F" stroke-opacity="0.5" stroke-width="1" stroke-linecap="butt" stroke-linejoin="bevel" fill="#eee" fill-opacity="0.5" fill-rule="evenodd" d="M1163 434L1173 435L1173 433L1179 425L1191 416L1198 414L1196 410L1199 407L1199 405L1195 399L1194 394L1192 394L1191 391L1191 388L1195 384L1191 384L1192 383L1189 380L1190 379L1186 373L1187 371L1184 368L1185 364L1183 363L1181 367L1178 369L1175 360L1166 355L1167 356L1164 365L1160 365L1157 367L1155 371L1154 370L1152 372L1147 369L1144 370L1144 373L1142 371L1137 372L1136 376L1133 378L1128 377L1123 382L1121 381L1114 385L1114 387L1110 389L1111 390L1108 392L1108 394L1104 384L1098 379L1094 383L1096 385L1095 394L1097 399L1089 408L1090 409L1088 412L1091 416L1093 415L1092 417L1094 417L1094 419L1098 418L1100 420L1100 425L1104 430L1114 426L1116 420L1121 415L1123 415L1122 414L1125 411L1135 411L1137 415L1140 416L1143 420L1137 425L1137 428L1130 434L1130 438L1126 440L1126 442L1131 445L1134 443L1132 445L1132 449L1133 448L1124 452L1124 457L1128 454L1129 455L1131 453L1134 453L1133 452L1135 450L1136 452L1136 450L1138 450L1140 446L1152 438L1157 437L1159 435L1163 435zM1149 445L1147 444L1149 445zM1143 447L1144 447zM1149 446L1150 447L1149 446zM1150 450L1151 451L1150 450zM1155 439L1155 440zM1146 446L1147 446zM1119 420L1120 419L1119 420zM1156 442L1155 441zM1157 450L1158 449L1157 450zM1166 435L1166 435z" id="辽宁省"/>
        <path class="leaflet-interactive" stroke="#8B908F" stroke-opacity="0.5" stroke-width="1" stroke-linecap="butt" stroke-linejoin="bevel" fill="#eee" fill-opacity="0.5" fill-rule="evenodd" d="M1261 378L1264 374L1263 373L1264 368L1266 366L1265 365L1271 368L1271 372L1274 375L1275 374L1277 378L1277 373L1274 371L1280 368L1283 369L1283 367L1286 366L1285 365L1287 363L1286 360L1288 359L1288 355L1286 356L1284 354L1282 356L1273 350L1273 342L1268 347L1266 343L1264 344L1264 346L1260 346L1257 348L1255 347L1255 352L1250 354L1248 353L1246 347L1247 346L1245 346L1242 340L1243 336L1241 332L1238 334L1238 336L1236 336L1236 340L1231 342L1226 332L1228 330L1219 330L1220 321L1217 317L1215 318L1215 316L1212 315L1205 318L1198 313L1197 309L1192 312L1188 312L1185 308L1185 311L1177 311L1171 304L1172 300L1170 300L1170 291L1164 293L1158 291L1156 295L1151 296L1152 300L1149 305L1149 303L1146 303L1146 301L1144 300L1143 302L1136 297L1135 298L1135 302L1133 304L1138 305L1138 309L1141 311L1142 316L1140 318L1139 323L1141 326L1140 329L1142 331L1143 338L1149 337L1155 332L1157 332L1156 333L1161 340L1160 343L1163 350L1163 352L1161 352L1162 353L1160 353L1160 355L1163 357L1166 357L1166 355L1168 355L1169 358L1175 361L1177 364L1176 366L1178 366L1178 368L1180 368L1181 365L1185 363L1184 368L1187 371L1186 372L1190 378L1189 380L1192 383L1191 384L1195 384L1191 388L1191 391L1192 394L1194 394L1195 399L1199 405L1199 407L1196 410L1198 412L1204 409L1211 400L1212 395L1214 393L1216 394L1218 391L1222 398L1228 400L1234 399L1237 400L1236 401L1239 399L1240 395L1237 392L1237 388L1235 387L1249 387L1254 383L1257 377L1260 379z" id="吉林省"/>
        <path class="leaflet-interactive" stroke="#8B908F" stroke-opacity="0.5" stroke-width="1" stroke-linecap="butt" stroke-linejoin="bevel" fill="#eee" fill-opacity="0.5" fill-rule="evenodd" d="M1164 293L1170 291L1170 300L1172 300L1171 304L1179 311L1185 311L1185 309L1187 309L1188 312L1192 312L1197 309L1199 314L1205 318L1211 315L1215 316L1215 318L1217 317L1220 321L1219 330L1228 330L1228 338L1231 341L1236 341L1236 336L1238 336L1238 334L1241 332L1243 335L1242 340L1245 346L1247 346L1246 347L1249 354L1255 352L1255 347L1256 348L1259 346L1263 346L1265 343L1267 343L1268 347L1273 342L1273 350L1282 356L1284 354L1285 356L1288 354L1286 354L1288 343L1285 327L1283 325L1284 323L1287 323L1289 321L1291 322L1297 313L1299 315L1314 320L1318 318L1318 310L1323 306L1323 302L1327 297L1326 295L1330 292L1329 289L1331 288L1330 284L1332 283L1332 275L1335 271L1334 267L1337 264L1339 264L1344 257L1340 251L1342 248L1342 244L1348 242L1349 239L1344 242L1340 240L1335 241L1333 243L1327 244L1327 246L1325 246L1324 248L1318 247L1312 252L1310 252L1309 257L1305 256L1303 258L1299 257L1293 259L1291 257L1284 258L1281 252L1278 250L1281 243L1279 241L1280 239L1278 239L1276 236L1278 230L1277 229L1272 230L1265 224L1263 219L1261 219L1258 215L1257 218L1254 216L1253 218L1251 215L1248 215L1247 212L1244 211L1236 213L1231 211L1230 207L1227 206L1227 200L1229 197L1224 193L1224 183L1217 173L1219 168L1217 168L1218 170L1216 169L1216 167L1218 167L1215 165L1215 158L1210 151L1212 147L1208 145L1208 143L1210 143L1208 142L1205 135L1202 134L1205 130L1202 130L1199 127L1197 127L1199 124L1196 122L1195 123L1195 121L1189 118L1185 120L1181 118L1180 119L1176 115L1173 115L1164 109L1162 109L1162 111L1161 109L1159 109L1153 112L1136 112L1130 115L1133 117L1135 123L1132 129L1125 135L1127 135L1136 143L1138 143L1141 137L1144 138L1145 141L1146 140L1146 143L1151 143L1151 146L1148 149L1150 151L1150 157L1153 163L1152 164L1155 168L1159 170L1164 169L1166 166L1169 168L1173 167L1175 169L1177 169L1178 167L1181 168L1186 165L1185 164L1188 162L1188 159L1191 160L1204 175L1204 177L1199 183L1199 188L1191 199L1191 205L1189 206L1189 211L1191 215L1190 222L1185 222L1180 232L1181 234L1179 237L1179 248L1177 248L1178 247L1176 244L1176 238L1173 239L1164 250L1159 252L1157 256L1148 261L1147 265L1145 266L1147 270L1152 273L1151 276L1153 275L1153 279L1155 281L1157 281L1161 277L1159 274L1163 276L1162 278L1165 278L1164 282L1154 284L1157 291L1164 293z" id="黑龙江省"/>
        <path class="leaflet-interactive" stroke="#8B908F" stroke-opacity="0.5" stroke-width="1" stroke-linecap="butt" stroke-linejoin="bevel" fill="#eee" fill-opacity="0.5" fill-rule="evenodd" d="M1121 608L1124 612L1128 614L1131 612L1138 611L1138 607L1129 599L1125 600L1125 603L1123 604L1124 605L1121 606zM1138 597L1127 592L1125 592L1124 594L1128 598L1129 597L1135 600L1138 599zM1135 602L1131 599L1135 602zM1135 602L1140 602L1135 601zM1132 600L1132 599zM1137 604L1138 604zM1136 604L1137 604z" id="上海市"/>
        <path class="leaflet-interactive" stroke="#8B908F" stroke-opacity="0.5" stroke-width="1" stroke-linecap="butt" stroke-linejoin="bevel" fill="#eee" fill-opacity="0.5" fill-rule="evenodd" d="M1063 540L1061 543L1060 538L1059 539L1055 532L1048 534L1048 538L1052 542L1057 543L1059 547L1058 548L1060 548L1061 550L1067 550L1070 553L1070 556L1077 556L1076 561L1073 565L1075 567L1077 566L1080 576L1085 576L1088 571L1090 571L1094 576L1094 578L1091 581L1087 578L1083 578L1085 580L1085 584L1082 586L1080 590L1082 594L1085 595L1084 596L1088 596L1088 601L1086 601L1087 604L1095 603L1100 606L1105 605L1114 613L1118 610L1117 609L1121 608L1121 606L1124 605L1124 601L1128 599L1125 592L1138 597L1136 590L1130 586L1129 581L1122 578L1120 566L1112 547L1108 543L1103 542L1098 538L1099 537L1093 534L1095 529L1089 531L1085 538L1081 538L1081 543L1078 544L1075 538L1071 538L1071 540L1067 542L1063 540z" id="江苏省"/>
        <path class="leaflet-interactive" stroke="#8B908F" stroke-opacity="0.5" stroke-width="1" stroke-linecap="butt" stroke-linejoin="bevel" fill="#eee" fill-opacity="0.5" fill-rule="evenodd" d="M1081 658L1085 658L1087 660L1086 665L1089 673L1094 674L1096 672L1097 673L1098 670L1100 670L1103 676L1107 676L1110 674L1114 679L1117 675L1116 672L1118 669L1121 666L1125 667L1124 668L1125 665L1122 665L1123 662L1124 661L1125 663L1131 658L1133 658L1133 654L1131 652L1133 651L1133 648L1135 648L1132 643L1135 642L1136 644L1138 644L1138 634L1136 634L1140 629L1133 626L1123 616L1127 614L1124 611L1123 612L1121 608L1119 608L1114 613L1112 609L1110 610L1104 605L1102 605L1100 606L1098 614L1094 616L1096 620L1089 620L1086 632L1082 636L1077 638L1077 640L1075 640L1075 644L1081 652L1082 658zM1141 627L1144 628L1138 623L1137 624L1140 627zM1142 623L1141 624zM1142 632L1143 633L1142 632zM1145 613L1147 614L1146 613zM1141 621L1139 621L1142 623L1141 620zM1143 622L1144 622zM1139 642L1139 642zM1144 629L1145 630L1145 628L1144 629zM1145 619L1144 619zM1136 650L1136 649zM1143 630L1142 631L1144 630zM1135 644L1135 644zM1126 671L1126 670zM1137 612L1140 616L1138 612zM1137 655L1136 655zM1141 633L1142 632L1140 631L1139 632L1141 633zM1146 628L1146 628zM1148 615L1147 615zM1136 656L1137 655zM1139 624L1139 624zM1145 627L1144 627zM1136 627L1136 625L1136 627zM1123 673L1124 674L1123 673zM1138 642L1138 642zM1139 631L1139 632zM1137 625L1138 625zM1138 622L1137 621zM1141 628L1141 628zM1143 632L1142 632zM1124 668L1124 668zM1151 624L1151 624zM1143 622L1143 622zM1143 629L1143 629zM1151 614L1151 614zM1124 665L1125 664L1123 665zM1125 664L1125 664zM1146 628L1146 628zM1152 614L1151 614zM1142 627L1142 628zM1139 628L1139 628zM1123 664L1123 664zM1146 628L1146 628zM1141 627L1141 627z" id="浙江省"/>
        <path class="leaflet-interactive" stroke="#8B908F" stroke-opacity="0.5" stroke-width="1" stroke-linecap="butt" stroke-linejoin="bevel" fill="#eee" fill-opacity="0.5" fill-rule="evenodd" d="M1051 551L1052 553L1044 557L1040 550L1036 550L1036 559L1033 559L1031 562L1031 567L1028 569L1026 569L1025 567L1024 568L1024 571L1029 573L1029 577L1031 579L1032 578L1036 582L1040 579L1040 594L1039 593L1035 595L1032 598L1032 602L1035 606L1036 604L1038 606L1040 605L1043 609L1041 609L1038 614L1040 616L1040 620L1043 623L1043 627L1046 631L1051 629L1051 626L1053 625L1056 628L1052 634L1053 635L1059 633L1059 630L1061 628L1065 630L1064 631L1067 635L1075 635L1076 638L1079 638L1079 636L1082 636L1088 629L1087 628L1089 626L1089 620L1097 620L1095 619L1096 617L1094 617L1096 614L1098 614L1101 606L1095 603L1086 603L1086 601L1088 601L1088 596L1084 596L1085 595L1082 594L1082 592L1080 591L1080 588L1085 584L1085 580L1083 578L1089 578L1088 579L1091 581L1094 578L1094 576L1090 571L1088 571L1085 576L1080 576L1078 568L1075 568L1073 566L1077 557L1076 555L1070 557L1070 553L1068 550L1061 550L1057 543L1052 542L1048 538L1044 542L1051 546L1051 551zM1088 598L1088 598zM1053 632L1053 633zM1034 580L1034 580z" id="安徽省"/>
        <path class="leaflet-interactive" stroke="#8B908F" stroke-opacity="0.5" stroke-width="1" stroke-linecap="butt" stroke-linejoin="bevel" fill="#eee" fill-opacity="0.5" fill-rule="evenodd" d="M1090 718L1088 716L1090 716L1089 713L1092 716L1092 714L1093 715L1095 713L1092 711L1094 709L1098 711L1099 710L1101 712L1101 710L1104 710L1103 707L1101 707L1101 709L1098 706L1102 700L1100 698L1101 696L1105 694L1103 689L1099 689L1101 687L1105 688L1105 686L1107 686L1103 690L1104 691L1108 689L1109 686L1107 684L1114 679L1110 674L1108 674L1107 676L1102 676L1099 670L1097 673L1096 672L1094 674L1089 674L1086 665L1086 658L1079 660L1080 661L1070 667L1067 664L1062 666L1062 669L1058 671L1061 677L1056 682L1055 681L1052 683L1050 687L1050 690L1052 692L1050 692L1048 696L1050 698L1046 702L1044 702L1045 704L1042 707L1042 711L1039 714L1041 717L1040 718L1046 721L1048 720L1050 725L1054 723L1055 724L1055 728L1058 732L1058 739L1061 743L1065 743L1067 740L1068 741L1069 737L1071 737L1075 731L1077 731L1075 728L1076 725L1080 726L1081 724L1083 726L1087 722L1084 721L1089 720L1090 718zM1081 726L1079 728L1081 728L1081 726zM1098 714L1099 715L1097 714zM1099 706L1099 706zM1106 696L1106 696zM1078 728L1078 727zM1105 687L1105 687zM1077 726L1076 725L1075 727L1077 727zM1105 697L1105 697zM1100 697L1100 697zM1107 691L1107 691zM1101 706L1102 706zM1102 689L1103 688zM1108 690L1109 689L1108 690zM1112 683L1111 683zM1109 685L1108 686L1109 685zM1101 689L1101 688z" id="福建省"/>
        <path class="leaflet-interactive" stroke="#8B908F" stroke-opacity="0.5" stroke-width="1" stroke-linecap="butt" stroke-linejoin="bevel" fill="#eee" fill-opacity="0.5" fill-rule="evenodd" d="M1077 638L1075 635L1067 635L1064 631L1065 630L1061 628L1059 630L1059 633L1053 635L1052 634L1056 629L1056 627L1055 628L1053 625L1051 629L1046 631L1045 630L1039 632L1037 630L1034 630L1031 634L1028 633L1027 636L1026 635L1023 637L1025 636L1025 638L1015 639L1009 644L1009 646L1012 649L1012 656L1014 656L1014 658L1010 661L1010 663L1005 666L1006 667L1003 671L1003 676L1008 675L1006 679L1008 682L1007 688L1011 690L1009 696L1013 696L1013 698L1011 698L1008 704L1010 713L1017 712L1018 710L1022 713L1014 723L1012 723L1016 725L1016 727L1018 725L1021 726L1030 722L1038 726L1039 725L1038 720L1040 720L1041 717L1039 714L1042 712L1042 708L1045 704L1044 703L1050 698L1048 694L1052 692L1050 688L1053 682L1059 680L1059 670L1061 670L1063 668L1062 666L1066 664L1069 667L1073 664L1080 662L1082 655L1080 649L1074 642L1077 639z" id="江西省"/>
        <path class="leaflet-interactive" stroke="#8B908F" stroke-opacity="0.5" stroke-width="1" stroke-linecap="butt" stroke-linejoin="bevel" fill="#eee" fill-opacity="0.5" fill-rule="evenodd" d="M1048 538L1049 533L1055 532L1058 535L1057 536L1059 537L1059 539L1060 538L1061 543L1063 540L1065 542L1069 540L1071 541L1071 538L1075 538L1075 540L1077 540L1077 544L1080 543L1083 537L1087 537L1086 536L1089 530L1097 529L1101 520L1103 520L1105 516L1106 517L1107 514L1111 512L1109 512L1109 508L1111 508L1111 511L1116 510L1118 502L1120 502L1120 504L1122 502L1122 500L1120 500L1121 499L1124 500L1128 497L1129 498L1131 495L1130 496L1133 497L1133 495L1139 492L1139 494L1140 493L1142 495L1146 493L1147 494L1148 491L1146 491L1146 489L1148 489L1148 484L1150 484L1142 482L1141 483L1140 480L1138 482L1131 483L1128 479L1125 480L1124 477L1118 475L1110 478L1111 479L1109 482L1105 483L1102 489L1095 489L1092 486L1091 487L1089 482L1090 479L1095 478L1095 475L1092 474L1090 469L1085 468L1083 470L1072 466L1069 470L1067 470L1064 475L1055 475L1049 482L1047 480L1045 484L1041 485L1037 496L1034 496L1030 502L1034 509L1031 513L1031 516L1039 511L1040 512L1043 510L1043 512L1040 512L1039 515L1034 517L1030 523L1028 523L1025 526L1025 528L1023 528L1023 531L1027 531L1033 535L1034 540L1047 539zM1118 472L1118 473zM1117 472L1118 472zM1122 503L1121 503zM1118 468L1118 467zM1121 464L1121 464zM1109 516L1109 516zM1116 472L1116 472zM1119 466L1119 465zM1130 480L1130 480zM1130 480L1130 480zM1130 480L1130 480zM1034 514L1034 514z" id="山东省"/>
        <path class="leaflet-interactive" stroke="#8B908F" stroke-opacity="0.5" stroke-width="1" stroke-linecap="butt" stroke-linejoin="bevel" fill="#eee" fill-opacity="0.5" fill-rule="evenodd" d="M989 583L997 581L1000 584L1005 581L1005 587L1007 592L1009 592L1009 594L1012 592L1014 594L1018 594L1019 598L1020 597L1023 600L1030 598L1029 599L1031 601L1035 595L1040 593L1040 578L1036 582L1029 578L1029 574L1024 571L1024 569L1025 567L1028 569L1031 567L1031 561L1035 559L1036 550L1038 549L1042 552L1044 556L1046 556L1052 553L1050 549L1051 546L1045 544L1045 541L1043 539L1034 540L1033 535L1028 531L1024 531L1023 528L1025 528L1026 524L1031 522L1034 517L1040 515L1043 509L1042 511L1031 516L1031 513L1034 509L1033 508L1031 510L1027 508L1024 511L1024 509L1016 508L1014 506L1013 507L1010 506L1011 505L1006 504L1003 515L1004 518L1002 518L1003 519L1001 521L996 523L996 525L993 524L992 527L978 526L978 530L974 530L969 535L965 535L954 540L951 539L953 544L952 545L955 548L955 553L961 559L961 565L964 568L964 570L966 570L965 572L971 578L972 577L980 582L988 582zM1006 584L1006 584z" id="河南省"/>
        <path class="leaflet-interactive" stroke="#8B908F" stroke-opacity="0.5" stroke-width="1" stroke-linecap="butt" stroke-linejoin="bevel" fill="#eee" fill-opacity="0.5" fill-rule="evenodd" d="M962 567L961 565L955 568L955 565L953 567L946 567L940 565L936 567L942 569L941 572L945 572L948 574L947 575L949 577L946 579L939 578L937 583L939 585L939 595L941 595L941 597L948 602L948 610L947 612L945 610L940 612L935 618L934 616L932 617L930 615L927 616L927 618L923 616L924 617L920 618L922 622L922 627L919 630L921 632L923 629L924 632L928 634L927 637L929 639L930 638L933 643L937 634L940 634L942 631L948 631L951 634L956 631L953 626L956 625L965 626L968 629L974 628L982 635L988 634L991 631L992 633L994 631L994 633L992 634L993 637L995 637L1003 630L1002 633L1004 633L1004 636L1006 637L1003 641L1005 641L1004 642L1009 645L1009 643L1014 641L1014 639L1024 638L1025 637L1023 637L1025 635L1028 636L1028 634L1033 632L1033 630L1039 632L1044 630L1043 623L1040 621L1041 619L1038 614L1040 612L1039 611L1043 608L1038 606L1037 604L1035 605L1028 597L1023 600L1020 597L1019 598L1019 594L1015 594L1012 592L1010 594L1005 588L1006 583L1004 581L1000 584L994 581L990 583L983 583L972 577L971 578L965 572L966 571L963 567zM931 616L931 616zM962 566L962 567zM989 583L989 583zM992 631L992 631z" id="湖北省"/>
        <path class="leaflet-interactive" stroke="#8B908F" stroke-opacity="0.5" stroke-width="1" stroke-linecap="butt" stroke-linejoin="bevel" fill="#eee" fill-opacity="0.5" fill-rule="evenodd" d="M978 722L979 720L980 721L980 714L985 714L989 716L990 719L992 719L994 718L994 714L991 713L998 708L1003 712L1006 712L1008 710L1010 698L1011 699L1013 697L1009 696L1011 690L1007 688L1008 682L1006 680L1008 675L1004 676L1003 671L1006 667L1005 666L1010 662L1010 660L1011 661L1014 656L1012 656L1013 655L1011 653L1012 648L1010 646L1009 647L1009 645L1004 642L1005 641L1003 641L1006 637L1004 636L1004 633L1002 633L1003 630L995 637L993 637L992 634L994 633L994 631L992 633L992 631L982 636L977 630L969 628L968 629L965 626L957 625L953 626L953 629L956 631L953 633L951 634L948 631L942 631L940 634L936 636L933 642L934 650L932 652L934 652L934 666L937 672L931 674L927 682L929 680L932 681L937 679L938 683L936 684L938 686L934 688L936 690L934 694L937 694L936 698L939 699L941 701L940 702L942 702L945 696L946 699L951 700L951 698L955 694L965 694L966 699L964 701L967 701L968 704L966 705L966 710L961 715L961 717L962 719L966 715L969 718L969 724L971 724L973 721L977 722zM938 686L938 686z" id="湖南省"/>
        <path class="leaflet-interactive" stroke="#8B908F" stroke-opacity="0.5" stroke-width="1" stroke-linecap="butt" stroke-linejoin="bevel" fill="#eee" fill-opacity="0.5" fill-rule="evenodd" d="M1003 767L1005 757L1008 762L1016 760L1018 763L1020 761L1018 759L1021 757L1022 760L1024 760L1028 756L1035 759L1036 757L1034 757L1036 755L1039 757L1046 754L1050 754L1056 746L1056 744L1061 743L1057 737L1058 732L1055 728L1055 724L1054 723L1050 725L1048 721L1049 720L1045 721L1040 719L1038 721L1039 724L1037 726L1032 721L1024 725L1018 725L1017 727L1012 723L1014 723L1022 713L1018 710L1016 712L1010 713L1009 710L1007 712L1004 712L998 708L991 713L994 714L993 719L990 719L988 715L981 714L979 718L980 721L979 720L976 724L978 726L978 730L975 731L977 736L975 736L974 739L971 739L972 740L967 747L967 755L956 762L957 765L955 768L951 768L952 772L945 772L944 776L941 777L944 780L941 782L940 785L941 794L944 797L944 801L948 801L954 798L953 793L951 790L948 789L950 786L958 781L966 779L965 780L967 780L971 778L972 779L973 777L975 778L978 774L986 775L990 772L992 773L995 768L998 773L1002 769L1002 767zM1058 745L1057 746L1060 745L1058 745zM991 775L992 774L989 776L990 778L991 775zM986 777L988 776L986 777zM1013 770L1015 770L1013 770zM952 785L954 786L955 784L952 784zM984 776L985 776zM954 786L950 786L949 788L954 789L954 787zM1006 771L1005 770zM1005 772L1005 771zM996 773L996 773zM1007 763L1006 763zM1013 771L1013 770zM1012 771L1012 771zM1054 792L1056 792L1056 795L1057 793L1055 791zM994 773L994 773zM952 793L952 793zM956 789L954 789L956 789zM954 799L955 798zM1041 786L1043 786L1041 785zM1041 788L1042 789L1041 788zM1039 758L1039 758zM1039 758L1039 758z" id="广东省"/>
        <path class="leaflet-interactive" stroke="#8B908F" stroke-opacity="0.5" stroke-width="1" stroke-linecap="butt" stroke-linejoin="bevel" fill="#eee" fill-opacity="0.5" fill-rule="evenodd" d="M937 699L934 704L935 705L929 704L928 705L930 704L930 708L926 708L926 706L924 707L923 712L921 709L920 710L918 708L915 711L916 712L911 716L909 715L909 713L908 714L908 712L905 714L905 712L900 707L896 710L897 713L884 718L884 722L881 724L868 718L861 724L857 722L857 726L860 730L861 727L867 728L869 734L870 733L873 735L873 733L875 733L875 735L879 735L880 733L884 737L883 743L881 745L878 744L873 749L874 752L875 751L879 754L891 754L894 757L890 761L890 764L892 765L892 771L896 771L900 775L906 777L910 776L915 779L917 777L916 779L921 778L923 776L931 778L930 779L932 781L939 779L941 780L945 772L951 772L951 768L956 767L956 762L967 755L967 747L969 742L971 742L972 738L974 739L974 737L977 736L975 732L978 729L978 726L976 724L978 722L973 721L970 724L968 723L969 717L967 715L963 719L961 718L969 702L965 701L966 696L961 694L962 693L960 693L960 695L954 695L951 698L951 700L946 699L947 697L945 696L942 702L940 702L941 701L939 699L937 700zM866 719L866 719zM931 787L931 787z" id="广西壮族自治区"/>
        <path class="leaflet-interactive" stroke="#8B908F" stroke-opacity="0.5" stroke-width="1" stroke-linecap="butt" stroke-linejoin="bevel" fill="#eee" fill-opacity="0.5" fill-rule="evenodd" d="M947 804L941 804L937 807L933 806L932 810L923 816L923 831L926 831L937 836L941 836L942 833L946 833L947 830L953 828L953 826L955 825L956 817L963 811L961 804L959 805L956 802L948 803zM981 1071L981 1070zM998 1002L1000 1000L999 999L998 1001zM977 1071L978 1071zM969 854L969 854zM1069 886L1071 886L1069 885zM981 1070L982 1069zM973 869L974 869zM972 868L971 869L972 868zM1008 1011L1011 1012L1016 1010L1018 1006L1014 1006L1013 1008L1008 1010zM1009 990L1010 991L1009 990zM1009 990L1010 991L1009 990zM977 867L978 867zM973 865L974 864zM981 990L980 990zM1006 1014L1007 1014zM1013 992L1013 991zM981 856L982 856zM1021 966L1021 965zM1039 976L1040 977L1040 975zM1020 972L1021 972zM1006 1010L1007 1010zM937 1015L941 1012L944 1012L940 1011L938 1013zM1046 990L1047 989zM985 872L987 872L985 872zM986 990L987 990zM1017 958L1019 957zM984 868L986 867zM1050 965L1050 967L1052 966L1050 965zM983 857L982 856zM969 865L970 865zM1034 973L1035 974L1034 973zM1020 1001L1021 1001zM1018 1002L1019 1002zM1028 998L1031 998L1029 998zM1008 1004L1009 1004zM1033 981L1033 981zM1049 985L1050 985zM1004 988L1004 988zM1021 955L1023 953L1021 955zM1020 948L1020 947zM1024 957L1025 957zM971 865L971 864zM1009 990L1008 991zM944 1007L947 1006L945 1006zM1054 947L1054 947zM972 863L973 862zM986 865L987 864L985 864zM974 871L975 871zM1007 971L1007 970zM1022 1002L1023 1002zM1051 976L1051 976zM1030 968L1030 968zM1055 964L1056 963zM1021 870L1023 869L1021 869zM1041 983L1042 983zM1004 984L1005 984zM1020 1011L1021 1010zM1018 960L1018 959zM1070 959L1070 958zM1014 968L1014 967zM1021 948L1021 947zM1052 963L1053 963zM953 1002L955 1002L953 1002zM969 996L970 995zM1030 996L1030 996zM997 1003L998 1002zM1011 956L1011 956zM1062 966L1062 966zM1013 872L1015 872L1014 871zM955 1004L955 1003zM1034 996L1035 997L1034 996zM970 1012L970 1011zM972 993L973 993zM953 1007L953 1007zM983 989L984 989zM1049 975L1050 974zM976 1003L978 1003L977 1002zM1017 879L1018 879zM1025 954L1026 954zM1011 872L1012 872zM1043 970L1043 969zM1062 960L1065 960L1063 960zM1023 1016L1024 1017zM991 989L992 989zM972 1010L972 1009zM981 991L981 990zM986 1040L987 1039zM1019 990L1020 990zM1024 1004L1024 1004zM993 997L993 997zM1003 1021L1004 1021zM1053 867L1053 866zM1064 970L1064 970zM993 814L993 813zM1017 872L1017 871zM1007 819L1008 818L1006 818zM988 1051L989 1052L988 1051zM972 1006L972 1005zM981 990L982 990zM992 1007L992 1006zM987 1044L988 1045L987 1044zM986 1042L987 1043L986 1042zM1032 907L1032 906zM1003 968L1004 968zM1007 881L1008 881zM992 1053L992 1052zM986 1051L987 1051zM983 1043L984 1042zM981 860L981 859zM981 878L981 877zM987 1047L989 1046L987 1046zM985 1041L985 1040zM997 1032L997 1031zM1044 978L1045 978zM1025 1012L1026 1012zM970 1007L971 1008L971 1006zM1009 875L1009 875zM1025 872L1024 872zM1054 987L1054 987zM988 866L988 865zM965 806L965 806zM1038 964L1039 964zM1061 960L1061 960zM988 867L988 866zM1038 963L1039 963zM986 979L987 979zM1019 878L1019 879zM1063 954L1063 955zM1069 954L1069 955zM1012 982L1013 982zM1021 976L1021 976zM986 1037L987 1037z" id="海南省"/>
        <path class="leaflet-interactive" stroke="#8B908F" stroke-opacity="0.5" stroke-width="1" stroke-linecap="butt" stroke-linejoin="bevel" fill="#eee" fill-opacity="0.5" fill-rule="evenodd" d="M887 654L889 654L889 648L891 651L890 654L892 655L895 649L896 650L899 647L901 650L904 647L903 642L906 641L906 643L909 642L911 646L918 644L918 651L922 652L922 657L923 658L923 655L925 655L925 659L929 661L932 655L934 655L934 653L932 653L934 651L934 645L931 639L927 637L928 634L926 634L923 629L922 632L920 632L922 627L922 622L920 618L924 617L923 616L927 618L927 616L929 615L931 615L931 617L934 615L935 617L944 610L947 612L947 601L944 598L941 598L940 595L935 595L925 587L919 586L919 590L917 590L922 596L920 596L919 599L917 599L911 612L909 612L909 610L904 613L905 616L898 626L892 626L891 621L884 623L884 621L879 619L877 620L873 624L877 627L877 629L874 630L870 637L876 641L879 647L882 646L885 648L886 654zM931 616L931 616zM874 625L874 624zM931 616L931 616zM898 626L898 626z" id="重庆市"/>
        <path class="leaflet-interactive" stroke="#8B908F" stroke-opacity="0.5" stroke-width="1" stroke-linecap="butt" stroke-linejoin="bevel" fill="#eee" fill-opacity="0.5" fill-rule="evenodd" d="M803 678L804 682L807 685L806 686L808 686L807 689L811 693L811 696L812 695L814 698L818 699L823 694L826 693L827 696L833 693L831 677L832 674L834 674L841 667L842 664L840 663L840 661L846 658L846 651L848 653L856 652L853 655L853 657L856 660L855 665L858 667L861 665L862 666L866 662L868 662L870 668L869 669L873 668L875 670L886 667L884 661L879 662L879 659L875 658L875 654L877 652L878 653L880 650L887 655L885 648L881 646L879 647L877 645L876 640L873 641L870 636L870 634L877 629L877 627L874 624L878 619L884 621L884 623L890 621L892 626L894 627L897 625L898 626L905 616L904 613L909 610L909 612L911 612L912 608L913 609L914 607L914 603L917 600L916 599L919 599L919 597L922 596L922 594L917 590L919 590L918 589L920 587L919 586L921 586L921 584L913 586L907 581L905 582L904 579L901 582L898 579L898 576L893 575L888 578L882 575L882 573L874 576L872 572L870 577L860 577L853 573L853 571L856 570L854 570L855 564L853 564L851 560L852 559L850 557L845 558L842 556L841 557L841 555L835 555L836 549L832 547L832 545L830 545L823 552L819 551L821 554L820 555L822 556L822 559L824 559L824 561L822 563L821 562L820 566L819 565L814 568L814 559L811 563L811 567L807 567L805 565L802 566L802 572L804 573L803 577L802 576L800 578L795 576L796 577L794 579L791 575L789 575L788 578L782 569L780 575L774 572L773 573L772 570L764 565L765 563L762 559L763 558L759 554L759 550L749 547L746 553L742 553L743 559L745 559L744 560L747 562L747 564L744 567L745 570L742 572L742 574L745 578L756 583L759 589L759 593L766 600L765 604L763 602L762 605L768 613L768 633L770 641L770 650L773 660L775 658L775 654L780 648L780 650L786 656L785 657L787 657L785 661L789 668L790 669L792 666L793 667L795 665L801 678L803 678zM885 623L885 623zM897 625L897 625zM874 623L874 623z" id="四川省"/>
        <path class="leaflet-interactive" stroke="#8B908F" stroke-opacity="0.5" stroke-width="1" stroke-linecap="butt" stroke-linejoin="bevel" fill="#eee" fill-opacity="0.5" fill-rule="evenodd" d="M934 655L932 655L929 661L926 659L925 660L925 655L923 655L924 658L922 657L923 653L918 651L919 646L916 644L911 646L910 643L906 643L906 641L903 642L904 646L901 650L901 648L899 647L896 650L894 650L895 651L893 655L890 655L891 652L889 648L889 654L887 653L887 655L881 650L879 653L876 654L876 659L877 658L879 661L885 662L885 668L875 670L871 668L869 674L863 676L857 676L857 674L855 673L853 677L848 674L843 681L845 682L845 689L849 691L851 688L854 689L855 687L859 691L854 706L856 708L855 709L858 708L857 711L858 710L862 714L860 714L860 718L857 721L858 723L861 724L867 718L869 718L881 724L884 720L883 718L895 714L897 711L896 710L900 707L905 713L908 712L908 714L909 713L911 716L915 714L915 711L918 708L923 711L925 706L930 709L930 704L928 704L929 705L931 703L934 705L937 699L937 694L934 695L934 692L936 690L934 688L938 683L936 679L933 679L932 681L929 680L927 682L926 680L931 676L931 674L933 674L937 670L934 666L935 659L933 655zM937 685L938 686L936 684L937 685zM938 686L938 687z" id="贵州省"/>
        <path class="leaflet-interactive" stroke="#8B908F" stroke-opacity="0.5" stroke-width="1" stroke-linecap="butt" stroke-linejoin="bevel" fill="#eee" fill-opacity="0.5" fill-rule="evenodd" d="M870 669L868 662L858 667L855 663L856 660L853 657L853 655L856 652L848 653L846 651L845 654L847 658L841 661L841 667L834 675L831 676L833 693L827 696L826 693L820 696L818 699L814 699L810 695L810 692L807 690L809 686L808 687L803 681L795 665L789 669L785 662L787 658L780 650L780 648L776 652L774 660L771 656L770 642L768 642L767 649L765 645L763 646L762 654L764 660L761 660L759 662L756 657L754 661L757 672L758 673L759 670L764 673L763 678L765 681L765 689L763 696L764 697L761 698L764 702L761 703L757 708L756 707L754 709L755 710L748 716L749 720L745 722L745 727L747 727L748 733L745 736L747 738L756 733L767 734L763 737L763 739L765 739L765 745L767 745L767 749L772 752L777 752L777 754L775 754L776 756L774 757L774 762L771 767L774 769L784 769L783 773L785 776L787 776L786 779L790 778L794 780L802 774L804 778L804 784L809 783L812 785L814 783L812 782L812 779L814 777L809 766L813 761L814 764L817 762L821 763L825 757L831 760L833 763L839 756L841 760L843 756L848 762L851 756L853 756L854 758L860 756L866 748L867 749L870 746L874 750L873 749L878 744L881 745L883 743L884 738L880 733L878 735L875 735L875 733L871 735L868 733L869 732L867 728L859 728L857 722L860 718L860 714L862 715L862 713L858 710L857 711L858 708L855 709L856 708L854 704L855 705L856 703L855 701L856 698L857 699L857 695L860 693L855 687L854 689L851 688L849 691L847 691L844 686L845 682L842 681L848 674L852 677L855 673L857 676L863 676L866 674L868 675L870 670z" id="云南省"/>
        <path class="leaflet-interactive" stroke="#8B908F" stroke-opacity="0.5" stroke-width="1" stroke-linecap="butt" stroke-linejoin="bevel" fill="#eee" fill-opacity="0.5" fill-rule="evenodd" d="M619 510L611 506L609 507L606 504L604 506L598 502L584 505L582 503L580 505L571 506L567 508L566 507L562 510L560 515L554 517L553 519L547 516L535 520L530 524L514 524L510 521L511 520L509 518L504 517L502 517L500 521L496 523L496 525L490 527L487 527L484 524L467 524L468 527L463 531L459 542L449 542L446 545L446 547L441 550L443 554L441 558L443 558L442 560L449 567L451 575L451 579L446 583L443 581L441 576L437 579L439 584L437 586L443 591L441 593L444 597L442 599L443 602L448 608L452 609L453 607L456 610L459 609L463 615L471 619L474 619L480 624L481 627L483 627L486 620L485 619L495 621L496 620L498 626L505 629L509 633L510 632L514 634L520 642L526 639L529 640L530 645L531 644L534 650L536 650L539 653L543 653L544 651L546 652L545 657L547 659L554 657L559 664L558 665L560 665L562 661L564 665L571 662L577 667L586 667L604 662L606 666L604 674L607 678L610 676L609 670L611 667L617 661L620 660L625 660L630 663L635 662L639 666L645 663L647 664L650 668L649 672L655 673L657 675L657 684L675 684L684 682L687 676L692 671L701 669L709 665L709 663L712 660L718 658L720 660L724 660L726 662L727 661L731 665L736 666L738 668L741 665L742 666L743 663L741 663L741 661L744 658L745 654L747 654L749 658L750 657L753 659L752 660L755 661L757 657L758 662L761 660L762 661L764 658L762 655L762 646L764 645L766 649L768 648L768 643L770 641L768 633L769 626L767 617L768 613L762 604L763 602L765 604L766 601L759 593L759 589L756 583L751 580L743 578L741 580L743 583L740 586L741 587L739 589L735 588L735 590L732 589L732 593L734 595L729 595L726 591L724 591L723 597L720 593L718 593L718 595L714 593L713 594L710 591L711 586L709 587L708 584L705 583L708 582L703 582L698 577L695 579L694 578L691 581L687 581L683 578L680 580L676 577L669 575L660 576L658 572L656 574L653 571L646 568L636 568L629 565L624 560L624 557L618 551L618 549L621 548L621 542L619 538L621 533L616 533L617 530L615 524L619 522L620 514L616 515L614 513L614 511L618 510z" id="西藏自治区"/>
        <path class="leaflet-interactive" stroke="#8B908F" stroke-opacity="0.5" stroke-width="1" stroke-linecap="butt" stroke-linejoin="bevel" fill="#eee" fill-opacity="0.5" fill-rule="evenodd" d="M951 539L949 537L949 534L955 520L952 508L953 501L951 491L953 491L958 481L953 471L953 467L959 461L962 454L961 451L964 449L964 439L962 439L955 445L948 441L947 442L949 445L943 446L945 447L940 451L938 455L936 455L936 457L934 458L935 459L932 460L929 464L928 467L930 470L928 473L926 470L926 478L913 479L914 478L911 475L907 474L908 475L905 476L902 480L902 493L911 496L912 499L917 499L917 501L924 504L923 507L925 509L924 512L921 514L923 525L916 525L912 527L909 525L909 530L911 532L907 533L906 532L901 534L897 530L892 529L889 531L890 536L886 540L890 541L892 544L892 546L889 545L890 549L888 555L890 559L888 560L888 558L884 560L880 558L878 563L876 563L880 567L880 569L877 572L873 572L873 574L874 576L876 576L879 573L882 573L883 576L888 578L893 575L898 576L898 579L901 582L904 579L905 582L907 582L913 587L913 585L921 584L921 586L934 593L934 595L939 595L939 585L937 583L938 580L941 578L946 579L949 577L947 573L941 572L941 568L936 567L940 565L946 567L953 567L954 565L957 568L962 564L962 561L955 553L956 548L952 546L953 543L951 540zM962 561L962 561zM882 575L882 575z" id="陕西省"/>
        <path class="leaflet-interactive" stroke="#8B908F" stroke-opacity="0.5" stroke-width="1" stroke-linecap="butt" stroke-linejoin="bevel" fill="#eee" fill-opacity="0.5" fill-rule="evenodd" d="M889 517L889 524L887 527L884 523L879 523L882 522L878 522L876 518L877 517L874 517L870 514L870 511L873 510L871 502L868 499L870 495L866 491L865 492L863 488L858 487L860 483L850 482L844 476L839 474L838 471L841 468L839 463L852 452L851 447L849 445L850 442L846 441L840 443L833 449L824 446L817 448L815 449L817 453L813 458L810 458L804 454L804 450L800 452L799 450L798 451L798 442L792 443L792 441L782 433L775 432L782 430L787 424L788 415L786 411L779 410L777 412L771 412L770 415L768 413L765 415L765 417L761 414L762 416L758 418L758 411L752 407L746 399L750 395L739 370L726 371L720 376L723 383L721 384L721 389L718 391L714 391L709 395L709 397L706 392L702 394L688 406L684 416L671 418L668 427L667 437L661 448L663 450L674 447L676 453L683 452L686 457L694 456L696 464L705 463L708 465L712 465L715 463L721 468L724 468L725 466L731 467L731 461L733 461L733 459L737 459L735 453L736 446L742 447L753 455L757 452L757 450L762 452L765 449L769 451L769 453L786 467L787 465L784 462L785 461L792 466L796 466L799 469L799 471L806 476L808 474L813 478L817 478L819 481L818 482L827 490L824 490L824 492L828 496L827 499L833 507L832 514L828 515L828 518L830 520L829 521L825 520L823 523L821 523L823 528L817 533L818 534L815 534L815 539L821 544L819 546L818 545L816 549L812 549L810 547L800 544L798 544L797 546L800 552L804 555L803 558L809 557L810 561L814 559L815 560L816 562L813 565L814 568L816 566L820 566L821 562L822 563L824 561L819 552L822 552L824 549L832 545L832 547L836 549L836 555L841 555L841 557L849 557L852 559L851 560L855 564L854 570L856 570L853 571L853 573L863 578L870 577L872 575L872 572L875 573L880 570L880 566L876 563L878 563L880 559L884 560L888 558L888 560L890 560L888 553L890 549L889 546L892 545L890 541L886 541L890 536L889 531L896 530L901 534L911 532L909 530L909 526L921 526L923 524L921 514L924 513L924 504L917 501L917 499L912 499L911 496L903 494L900 489L893 488L893 490L892 489L890 493L891 497L889 497L887 501L889 503L888 506L892 506L896 509L896 515L893 518L890 517zM882 522L882 521zM830 504L830 505zM882 523L882 523zM889 517L889 517z" id="甘肃省"/>
        <path class="leaflet-interactive" stroke="#8B908F" stroke-opacity="0.5" stroke-width="1" stroke-linecap="butt" stroke-linejoin="bevel" fill="#eee" fill-opacity="0.5" fill-rule="evenodd" d="M830 504L826 497L828 496L824 492L826 488L819 482L817 477L813 478L808 474L806 476L799 470L799 468L796 466L789 465L790 464L786 461L784 462L787 465L787 467L780 463L769 453L769 451L765 449L762 452L758 450L754 455L747 452L742 447L736 446L735 452L737 458L731 461L731 467L725 466L725 468L722 468L715 463L712 465L708 465L706 463L697 464L694 456L687 457L684 455L686 454L683 452L676 453L674 447L671 447L664 449L662 451L633 458L629 462L625 462L628 467L629 465L632 465L632 477L638 480L637 481L641 482L644 490L642 492L637 493L635 497L635 499L640 501L640 507L642 509L641 510L638 511L624 507L623 510L614 512L616 515L620 514L620 522L615 524L617 530L616 533L621 533L619 537L621 542L621 548L619 548L618 551L624 557L624 560L635 568L648 568L655 574L658 572L660 576L672 575L673 577L679 580L683 578L686 581L690 581L697 577L700 578L703 582L704 581L708 583L705 583L707 583L709 587L710 586L710 591L712 594L714 593L717 595L720 593L723 597L723 592L726 591L729 595L733 595L733 589L734 590L736 589L735 588L741 588L741 584L743 584L741 580L743 578L747 580L748 579L742 574L748 562L744 560L745 559L743 559L742 554L746 552L749 547L759 550L759 554L763 558L762 559L765 563L764 565L773 573L774 572L781 575L782 570L786 573L786 577L788 578L789 575L791 575L790 576L791 575L793 579L795 579L795 577L796 578L795 576L800 578L802 576L803 577L804 574L802 567L804 565L811 568L811 563L813 561L810 561L810 557L803 558L804 555L800 553L797 546L799 544L804 544L805 546L811 549L816 549L818 545L819 546L820 544L815 539L815 535L816 533L818 534L817 533L823 528L821 523L825 521L829 522L828 521L830 520L828 516L829 514L832 515L831 510L834 507L830 505z" id="青海省"/>
        <path class="leaflet-interactive" stroke="#8B908F" stroke-opacity="0.5" stroke-width="1" stroke-linecap="butt" stroke-linejoin="bevel" fill="#eee" fill-opacity="0.5" fill-rule="evenodd" d="M901 490L901 485L903 481L902 480L907 475L900 468L893 468L889 465L891 463L892 457L897 450L894 447L893 443L891 443L889 445L885 445L886 447L882 449L880 453L881 454L879 455L877 475L874 478L871 477L862 481L856 481L854 483L860 483L858 487L863 487L863 490L870 495L868 499L871 502L873 509L870 511L871 515L873 517L876 517L878 522L881 521L887 527L889 525L888 518L893 518L896 515L896 509L894 507L888 506L889 503L887 501L889 497L891 497L890 492L892 491L892 489L893 490L893 488L895 490L901 490zM882 522L879 523L882 522zM882 522L882 523z" id="宁夏回族自治区"/>
        <path class="leaflet-interactive" stroke="#8B908F" stroke-opacity="0.5" stroke-width="1" stroke-linecap="butt" stroke-linejoin="bevel" fill="#eee" fill-opacity="0.5" fill-rule="evenodd" d="M726 371L726 368L718 359L718 356L712 343L710 343L711 337L704 338L699 336L698 333L680 321L679 322L675 320L673 321L649 319L647 317L643 318L642 316L638 316L638 314L636 314L637 313L634 307L640 297L638 291L641 284L639 277L631 267L632 265L629 259L625 256L625 254L623 253L621 255L614 249L612 251L608 250L607 248L601 245L600 241L594 239L591 236L593 234L587 229L589 227L588 222L582 224L577 222L573 223L571 227L572 233L569 235L568 238L563 240L556 240L552 246L554 264L554 269L552 273L546 273L542 278L538 274L525 275L517 270L511 269L511 273L505 291L502 298L500 299L499 304L499 308L504 311L503 317L499 315L493 315L491 312L477 318L474 317L469 320L465 319L461 323L463 325L465 324L466 327L468 327L469 329L468 332L470 344L475 355L474 363L473 362L469 365L470 367L472 367L468 369L465 373L467 381L465 384L466 386L461 386L459 390L453 391L438 400L434 400L433 403L427 407L428 408L417 409L414 407L410 410L409 416L404 423L402 421L394 424L392 416L386 421L380 419L379 420L381 423L377 423L372 428L366 428L365 433L363 435L365 436L364 440L358 443L364 452L361 453L362 457L366 461L368 457L374 458L378 460L380 463L379 468L382 476L380 478L385 483L381 487L376 486L373 489L375 491L380 491L380 493L383 491L388 492L389 497L394 497L399 504L399 507L397 509L398 511L400 511L401 515L405 515L407 513L407 515L411 519L412 518L414 520L425 523L427 521L433 522L431 524L431 529L433 530L432 531L435 539L439 541L441 540L446 544L449 542L459 542L462 535L461 534L463 534L464 530L467 527L467 524L470 523L474 525L478 525L480 523L482 525L490 527L494 526L496 522L500 521L500 519L504 517L507 519L510 518L510 521L513 524L530 524L538 519L547 516L552 519L560 515L564 508L577 505L578 506L582 503L584 505L601 502L601 504L604 506L606 504L609 507L611 506L615 509L623 510L623 508L626 507L637 511L642 509L640 507L640 501L635 500L635 495L637 493L642 492L644 488L641 482L639 482L637 479L633 477L632 465L630 465L629 467L625 463L626 461L631 461L634 458L662 451L661 446L666 440L671 418L684 416L688 406L696 398L700 397L703 393L706 392L709 397L711 393L714 391L718 391L722 388L721 384L723 383L720 377L723 374z" id="新疆维吾尔自治区"/>
        <path class="leaflet-interactive" stroke="#8B908F" stroke-opacity="0.5" stroke-width="1" stroke-linecap="butt" stroke-linejoin="bevel" fill="#eee" fill-opacity="0.5" fill-rule="evenodd" d="M1113 763L1115 763L1117 772L1119 772L1121 770L1122 761L1128 753L1133 733L1137 726L1136 721L1139 718L1132 712L1122 718L1121 722L1117 725L1108 741L1108 747L1106 752L1108 753L1111 761zM1179 702L1180 701zM1162 705L1162 704zM1100 743L1101 742L1100 744zM1165 701L1166 701zM1098 742L1099 742zM1098 746L1098 747zM1099 741L1100 741zM1139 707L1140 706zM1130 759L1131 759zM1130 769L1132 769zM1140 709L1140 709zM1097 749L1097 749zM1112 765L1112 764z" id="台湾省"/>
        <path class="leaflet-interactive" stroke="#8B908F" stroke-opacity="0.5" stroke-width="1" stroke-linecap="butt" stroke-linejoin="bevel" fill="#eee" fill-opacity="0.5" fill-rule="evenodd" d="M1010 762L1007 766L1010 767L1010 765L1012 765L1014 767L1016 763L1014 763L1014 761L1011 761zM1012 767L1012 767zM1015 764L1015 764zM1015 764L1015 764zM1015 764L1015 764zM1015 765L1015 765zM1015 764L1015 764zM1016 765L1016 765zM1015 765L1015 765z" id="香港特别行政区"/>
        <path class="leaflet-interactive" stroke="#8B908F" stroke-opacity="0.5" stroke-width="1" stroke-linecap="butt" stroke-linejoin="bevel" fill="#eee" fill-opacity="0.5" fill-rule="evenodd" d="M1002 768L1003 767L1002 768zM1003 767L1003 767z" id="澳门特别行政区"/>
        <path class="leaflet-interactive" stroke="#8B908F" stroke-opacity="0.5" stroke-width="1" stroke-linecap="butt" stroke-linejoin="bevel" fill="#eee" fill-opacity="0.5" fill-rule="evenodd" d="M1147 745L1151 725L1147 745zM1125 791L1137 776L1125 791zM1098 839L1107 821L1098 839zM1091 888L1091 872L1091 888zM1085 952L1082 957L1090 939L1088 945zM1034 1018L1046 1005L1034 1018zM982 1076L974 1078L986 1076L991 1073L986 1075zM917 1035L918 1036L917 1019L917 1035zM947 949L946 951L949 947L951 940L950 935L950 942L948 947zM943 885L943 887L939 875L934 869L942 882z" id="100000_JD"/>
    </g>
</svg>